<mxfile host="app.diagrams.net" modified="2021-11-16T22:22:14.852Z" agent="5.0 (Macintosh; Intel Mac OS X 10_15_7) AppleWebKit/537.36 (KHTML, like Gecko) Chrome/94.0.4606.71 Safari/537.36" etag="WvvNJJkY-m_ftD2CafR6" version="14.4.4" type="github">
  <diagram id="aIVxC8aKjaTZpFNGB4BD" name="Page-1">
    <mxGraphModel dx="1165" dy="732" grid="1" gridSize="10" guides="1" tooltips="1" connect="1" arrows="1" fold="1" page="1" pageScale="1" pageWidth="850" pageHeight="1100" math="0" shadow="0">
      <root>
        <mxCell id="0" />
        <mxCell id="1" parent="0" />
        <mxCell id="6Yetlf7pxguZ1J1Wy2Uf-16" value="" style="shape=mxgraph.mockup.containers.marginRect;rectMarginTop=10;strokeColor=#666666;strokeWidth=1;dashed=0;rounded=1;arcSize=5;recursiveResize=0;" parent="1" vertex="1">
          <mxGeometry x="280" y="450" width="400" height="209" as="geometry" />
        </mxCell>
        <mxCell id="6Yetlf7pxguZ1J1Wy2Uf-17" value="SageMaker&#xa;Studio" style="shape=rect;strokeColor=none;fillColor=#008cff;strokeWidth=1;dashed=0;rounded=1;arcSize=20;fontColor=#ffffff;fontSize=17;spacing=2;spacingTop=-2;align=left;autosize=1;spacingLeft=4;resizeWidth=0;resizeHeight=0;perimeter=none;" parent="6Yetlf7pxguZ1J1Wy2Uf-16" vertex="1">
          <mxGeometry x="5" y="-10" width="110" height="60" as="geometry" />
        </mxCell>
        <mxCell id="6Yetlf7pxguZ1J1Wy2Uf-10" value="" style="shape=mxgraph.mockup.containers.marginRect;rectMarginTop=10;strokeColor=#666666;strokeWidth=1;dashed=0;rounded=1;arcSize=5;recursiveResize=0;" parent="1" vertex="1">
          <mxGeometry x="200" y="153" width="560" height="220" as="geometry" />
        </mxCell>
        <mxCell id="6Yetlf7pxguZ1J1Wy2Uf-11" value="AWS &#xa;Serverless" style="shape=rect;strokeColor=none;fillColor=#008cff;strokeWidth=1;dashed=0;rounded=1;arcSize=20;fontColor=#ffffff;fontSize=17;spacing=2;spacingTop=-2;align=left;autosize=1;spacingLeft=4;resizeWidth=0;resizeHeight=0;perimeter=none;" parent="6Yetlf7pxguZ1J1Wy2Uf-10" vertex="1">
          <mxGeometry x="5" y="-10" width="100" height="60" as="geometry" />
        </mxCell>
        <mxCell id="6Yetlf7pxguZ1J1Wy2Uf-4" value="" style="edgeStyle=orthogonalEdgeStyle;rounded=0;orthogonalLoop=1;jettySize=auto;html=1;" parent="1" source="znTp5Endj6UcAunLmGGq-1" target="znTp5Endj6UcAunLmGGq-5" edge="1">
          <mxGeometry relative="1" as="geometry" />
        </mxCell>
        <mxCell id="6Yetlf7pxguZ1J1Wy2Uf-5" value="" style="edgeStyle=orthogonalEdgeStyle;rounded=0;orthogonalLoop=1;jettySize=auto;html=1;" parent="1" source="znTp5Endj6UcAunLmGGq-1" target="znTp5Endj6UcAunLmGGq-2" edge="1">
          <mxGeometry relative="1" as="geometry">
            <Array as="points">
              <mxPoint x="370" y="250" />
              <mxPoint x="370" y="250" />
            </Array>
          </mxGeometry>
        </mxCell>
        <mxCell id="znTp5Endj6UcAunLmGGq-1" value="AWS Lambda&lt;br&gt;Hosted predict" style="points=[[0,0,0],[0.25,0,0],[0.5,0,0],[0.75,0,0],[1,0,0],[0,1,0],[0.25,1,0],[0.5,1,0],[0.75,1,0],[1,1,0],[0,0.25,0],[0,0.5,0],[0,0.75,0],[1,0.25,0],[1,0.5,0],[1,0.75,0]];outlineConnect=0;fontColor=#232F3E;gradientColor=#F78E04;gradientDirection=north;fillColor=#D05C17;strokeColor=#ffffff;dashed=0;verticalLabelPosition=bottom;verticalAlign=top;align=center;html=1;fontSize=12;fontStyle=0;aspect=fixed;shape=mxgraph.aws4.resourceIcon;resIcon=mxgraph.aws4.lambda;" parent="1" vertex="1">
          <mxGeometry x="410" y="225" width="78" height="78" as="geometry" />
        </mxCell>
        <mxCell id="6Yetlf7pxguZ1J1Wy2Uf-1" value="" style="edgeStyle=orthogonalEdgeStyle;rounded=0;orthogonalLoop=1;jettySize=auto;html=1;" parent="1" source="znTp5Endj6UcAunLmGGq-2" target="znTp5Endj6UcAunLmGGq-1" edge="1">
          <mxGeometry relative="1" as="geometry">
            <Array as="points">
              <mxPoint x="370" y="270" />
              <mxPoint x="370" y="270" />
            </Array>
          </mxGeometry>
        </mxCell>
        <mxCell id="znTp5Endj6UcAunLmGGq-2" value="AWS API Gateway" style="outlineConnect=0;dashed=0;verticalLabelPosition=bottom;verticalAlign=top;align=center;html=1;shape=mxgraph.aws3.api_gateway;fillColor=#D9A741;gradientColor=none;" parent="1" vertex="1">
          <mxGeometry x="250" y="217.5" width="76.5" height="93" as="geometry" />
        </mxCell>
        <mxCell id="6Yetlf7pxguZ1J1Wy2Uf-18" value="Deploy Model to &lt;br&gt;hosted Endpoint" style="edgeStyle=orthogonalEdgeStyle;rounded=0;orthogonalLoop=1;jettySize=auto;html=1;" parent="1" source="znTp5Endj6UcAunLmGGq-3" target="znTp5Endj6UcAunLmGGq-5" edge="1">
          <mxGeometry relative="1" as="geometry" />
        </mxCell>
        <mxCell id="znTp5Endj6UcAunLmGGq-3" value="SageMaker&lt;br&gt;ML Platform" style="points=[[0,0,0],[0.25,0,0],[0.5,0,0],[0.75,0,0],[1,0,0],[0,1,0],[0.25,1,0],[0.5,1,0],[0.75,1,0],[1,1,0],[0,0.25,0],[0,0.5,0],[0,0.75,0],[1,0.25,0],[1,0.5,0],[1,0.75,0]];outlineConnect=0;fontColor=#232F3E;gradientColor=#4AB29A;gradientDirection=north;fillColor=#116D5B;strokeColor=#ffffff;dashed=0;verticalLabelPosition=bottom;verticalAlign=top;align=center;html=1;fontSize=12;fontStyle=0;aspect=fixed;shape=mxgraph.aws4.resourceIcon;resIcon=mxgraph.aws4.sagemaker;" parent="1" vertex="1">
          <mxGeometry x="570" y="511" width="78" height="78" as="geometry" />
        </mxCell>
        <mxCell id="6Yetlf7pxguZ1J1Wy2Uf-12" value="" style="edgeStyle=orthogonalEdgeStyle;rounded=0;orthogonalLoop=1;jettySize=auto;html=1;" parent="1" source="znTp5Endj6UcAunLmGGq-4" target="znTp5Endj6UcAunLmGGq-2" edge="1">
          <mxGeometry relative="1" as="geometry">
            <Array as="points">
              <mxPoint x="180" y="214" />
              <mxPoint x="180" y="264" />
            </Array>
          </mxGeometry>
        </mxCell>
        <mxCell id="znTp5Endj6UcAunLmGGq-4" value="Postman API&lt;br&gt;Testing" style="shape=image;html=1;verticalAlign=top;verticalLabelPosition=bottom;labelBackgroundColor=#ffffff;imageAspect=0;aspect=fixed;image=https://cdn4.iconfinder.com/data/icons/logos-brands-5/24/postman-128.png" parent="1" vertex="1">
          <mxGeometry x="80" y="170" width="88" height="88" as="geometry" />
        </mxCell>
        <mxCell id="6Yetlf7pxguZ1J1Wy2Uf-3" value="" style="edgeStyle=orthogonalEdgeStyle;rounded=0;orthogonalLoop=1;jettySize=auto;html=1;" parent="1" source="znTp5Endj6UcAunLmGGq-5" target="znTp5Endj6UcAunLmGGq-1" edge="1">
          <mxGeometry relative="1" as="geometry">
            <Array as="points">
              <mxPoint x="530" y="250" />
              <mxPoint x="530" y="250" />
            </Array>
          </mxGeometry>
        </mxCell>
        <mxCell id="znTp5Endj6UcAunLmGGq-5" value="Sagemaker&lt;br&gt;Hosted Endpoint&lt;br&gt;Predict payment default probability" style="points=[[0,0,0],[0.25,0,0],[0.5,0,0],[0.75,0,0],[1,0,0],[0,1,0],[0.25,1,0],[0.5,1,0],[0.75,1,0],[1,1,0],[0,0.25,0],[0,0.5,0],[0,0.75,0],[1,0.25,0],[1,0.5,0],[1,0.75,0]];outlineConnect=0;fontColor=#232F3E;gradientColor=#4AB29A;gradientDirection=north;fillColor=#116D5B;strokeColor=#ffffff;dashed=0;verticalLabelPosition=bottom;verticalAlign=top;align=center;html=1;fontSize=12;fontStyle=0;aspect=fixed;shape=mxgraph.aws4.resourceIcon;resIcon=mxgraph.aws4.elastic_inference_2;" parent="1" vertex="1">
          <mxGeometry x="570" y="225" width="78" height="78" as="geometry" />
        </mxCell>
        <mxCell id="6Yetlf7pxguZ1J1Wy2Uf-14" value="" style="edgeStyle=orthogonalEdgeStyle;rounded=0;orthogonalLoop=1;jettySize=auto;html=1;" parent="1" source="znTp5Endj6UcAunLmGGq-7" target="znTp5Endj6UcAunLmGGq-8" edge="1">
          <mxGeometry relative="1" as="geometry" />
        </mxCell>
        <mxCell id="6Yetlf7pxguZ1J1Wy2Uf-15" value="" style="edgeStyle=orthogonalEdgeStyle;rounded=0;orthogonalLoop=1;jettySize=auto;html=1;" parent="1" source="znTp5Endj6UcAunLmGGq-7" target="znTp5Endj6UcAunLmGGq-3" edge="1">
          <mxGeometry relative="1" as="geometry" />
        </mxCell>
        <mxCell id="znTp5Endj6UcAunLmGGq-7" value="Python Notebook&#xa;EDA, Scaling, Training" style="shape=image;verticalLabelPosition=bottom;labelBackgroundColor=#ffffff;verticalAlign=top;aspect=fixed;imageAspect=0;image=data:image/png,iVBORw0KGgoAAAANSUhEUgAAARIAAAEqCAYAAADZHt/jAAAKIGlDQ1BJQ0MgUHJvZmlsZQAASImVlgdQFNkWhm/35ESaIach55wGkDjkIDmKyjBDhgGHKGBCFlfAhIoIKBIWBRRcWYIsIiCKgUVAxeyCLALKuhgQFXVej2ysrXqv3l916n59uu+5p+/tqv4BIMWxUlOTYBEAkrnpPH9XR3poWDgd9xRAgAbIwBBIsdhpqQ6+vl4A0R/jP/VuAnka0S09Qa1/3/+vEuVEp7EBgHwRTuGksZMR7kPYiZ3KSwcARiOskpWeKmBNhGk8pEGE1wg4dpUFc2lRq8z5+kygPxPhbADwZBaLFwsAsQDJ0zPZsUgdYj3ChlxOPBfh2wjbsuNYyDwSDWHd5OQUAdsjrBn1tzqx/6gZ9WdNFiv2T159l68SZ6YkpfDoXkwnOpOVFB/FY6VHc/7PvfmfSk7K+GM9wQmQo7lBAYK+kZADTJACkpDgATrwQq6ckJEJWEguHkQhWRZIB9GAkx6dnS4owExJ3cyLj41LpzsgpxhNd+ey9XXpxoZGDAAE38TqMm98v64ESfT+lds5AoDNMJ/P7/kr57kHgDbBXk/8ldPIBUCoH4CrlewMXuZqTnC8AAOIQBj53qSBAlBButcDxsAcWAN74Aw8gA8IBGFgA2CDOJCM9J0F8sAOUAiKwX5wGFSAalAHToEz4BzoBD2gH1wBN8AouAMegkkwA16ARfAOrEAQhIMoEBWShhQhNUgHMoYYkC3kDHlB/lAYFAnFQlwoA8qDdkLFUClUAdVAjdD30HmoH7oGjUH3oSloHnoNfYRRMBmmwfKwOmwAM2AH2BMOhNfDsfAmOAcugPfC5XAtfBrugPvhG/AdeBJ+AS+hAIqEkkApofRQDBQT5YMKR8WgeKitqCJUGaoW1YLqRg2hbqEmUQuoD2gsmoqmo/XQ1mg3dBCajd6E3oouQVegT6E70IPoW+gp9CL6C4aCkcPoYKww7phQTCwmC1OIKcM0YNoxlzF3MDOYd1gsVgKrgbXAumHDsAnYXGwJ9hi2FduHHcNOY5dwOJw0Tgdng/PBsXDpuELcUdxp3EXcOG4G9x5PwivijfEu+HA8F5+PL8M34Xvx4/hZ/ApBhKBGsCL4EDiEzYR9hHpCN+EmYYawQhQlahBtiIHEBOIOYjmxhXiZ+Ij4hkQiKZMsSX6keNJ2UjnpLOkqaYr0gSxG1iYzyRHkDPJe8klyH/k++Q2FQlGn2FPCKemUvZRGyiXKE8p7IaqQvpC7EEdom1ClUIfQuNBLYYKwmrCD8AbhHOEy4Tbhm8ILIgQRdRGmCEtkq0ilyHmRuyJLolRRI1Ef0WTREtEm0Wuic2I4MXUxZzGOWIFYndglsWkqiqpCZVLZ1J3Ueupl6gwNS9OgudMSaMW0M7QR2qK4mLipeLB4tnil+AXxSQmUhLqEu0SSxD6JcxITEh8l5SUdJKMld0u2SI5LLkvJStlLRUsVSbVK3ZH6KE2XdpZOlD4g3Sn9WAYtoy3jJ5Mlc1zmssyCLE3WWpYtWyR7TvaBHCynLecvlytXJzcstySvIO8qnyp/VP6S/IKChIK9QoLCIYVehXlFqqKtYrziIcWLis/p4nQHehK9nD5IX1SSU3JTylCqURpRWlHWUA5SzlduVX6sQlRhqMSoHFIZUFlUVVT1Vs1TbVZ9oEZQY6jFqR1RG1JbVtdQD1Hfpd6pPqchpeGukaPRrPFIk6Jpp7lJs1bzthZWi6GVqHVMa1Qb1jbTjtOu1L6pA+uY68TrHNMZ08XoWupydWt17+qR9Rz0MvWa9ab0JfS99PP1O/VfGqgahBscMBgy+GJoZphkWG/40EjMyMMo36jb6LWxtjHbuNL4tgnFxMVkm0mXyStTHdNo0+Om98yoZt5mu8wGzD6bW5jzzFvM5y1ULSItqizuMmgMX0YJ46olxtLRcptlj+UHK3OrdKtzVr9Z61knWjdZz63RWBO9pn7NtI2yDcumxmbSlm4baXvCdtJOyY5lV2v31F7FnmPfYD/roOWQ4HDa4aWjoSPPsd1xmWnF3MLsc0I5uToVOY04izkHOVc4P3FRdol1aXZZdDVzzXXtc8O4ebodcLvrLu/Odm90X/Sw8NjiMehJ9gzwrPB86qXtxfPq9oa9PbwPej9aq7aWu7bTB/i4+xz0eeyr4bvJ90c/rJ+vX6XfM38j/zz/oQBqwMaApoB3gY6B+wIfBmkGZQQNBAsHRwQ3Bi+HOIWUhkyGGoRuCb0RJhMWH9YVjgsPDm8IX1rnvO7wupkIs4jCiIn1Guuz11/bILMhacOFjcIbWRvbIjGRIZFNkZ9YPqxa1lKUe1RV1CKbyT7CfsGx5xzizEfbRJdGz8bYxJTGzMXaxB6MnY+ziyuLW4hnxlfEv0pwS6hOWE70STyZyE8KSWpNxidHJp/ninETuYMpCinZKWOpOqmFqZObrDYd3rTI8+Q1pEFp69O60mnIz3c4QzPjm4ypTNvMysz3WcFZbdmi2dzs4c3am3dvns1xyfkuF53Lzh3IU8rbkTe1xWFLzVZoa9TWgW0q2wq2zWx33X5qB3FH4o6f8g3zS/Pf7gzZ2V0gX7C9YPob12+aC4UKeYV3d1nvqv4W/W38tyO7TXYf3f2liFN0vdiwuKz4Uwm75Poeoz3le/h7Y/aO7DPfd3w/dj93/8QBuwOnSkVLc0qnD3of7DhEP1R06O3hjYevlZmWVR8hHsk4MlnuVd51VPXo/qOfKuIq7lQ6VrZWyVXtrlo+xjk2ftz+eEu1fHVx9ccT8Sfu1bjWdNSq15bVYesy657VB9cPfcf4rrFBpqG44fNJ7snJU/6nBhstGhub5Jr2NcPNGc3zpyNOj55xOtPVotdS0yrRWnwWnM04+/z7yO8nznmeG2hjtLX8oPZDVTu1vagD6tjcsdgZ1znZFdY1dt7j/EC3dXf7j/o/nuxR6qm8IH5hXy+xt6CXfzHn4lJfat9Cf2z/9MDGgYeXQi/dHvQbHLnsefnqFZcrl4Ychi5etbnac83q2vnrjOudN8xvdAybDbf/ZPZT+4j5SMdNi5tdo5aj3WNrxnrH7cb7bzndunLb/faNO2vvjE0ETdy7G3F38h7n3tz9pPuvHmQ+WHm4/RHmUdFjkcdlT+Se1P6s9XPrpPnkhSmnqeGnAU8fTrOnX/yS9sunmYJnlGdls4qzjXPGcz3zLvOjz9c9n3mR+mJlofBX0V+rXmq+/OE3+9+GF0MXZ17xXvFfl7yRfnPyrenbgSXfpSfvkt+tLBe9l35/6gPjw9DHkI+zK1mfcJ/KP2t97v7i+eURP5nPT2XxWF+tAAoJOCYGgNcnAaCEAUAdRfzDulXP9rvHgf7mdv5gwG/4G3eu+rqvMgegBRn8Be6mD4CzSKjbI7WRUWAZA+0BbGLyZ/yutBgT49U1yA6INXnM579B/BSuFIDP+/n8lVo+/3Md0uxDAPqyV72iQFjEQZ8wFNC4Ytu/fNp/AOz1xyQ8qD7xAAAAimVYSWZNTQAqAAAACAAEARoABQAAAAEAAAA+ARsABQAAAAEAAABGASgAAwAAAAEAAgAAh2kABAAAAAEAAABOAAAAAAAAAJAAAAABAAAAkAAAAAEAA5KGAAcAAAASAAAAeKACAAQAAAABAAABEqADAAQAAAABAAABKgAAAABBU0NJSQAAAFNjcmVlbnNob3QtRpjNAAAACXBIWXMAABYlAAAWJQFJUiTwAAAB1mlUWHRYTUw6Y29tLmFkb2JlLnhtcAAAAAAAPHg6eG1wbWV0YSB4bWxuczp4PSJhZG9iZTpuczptZXRhLyIgeDp4bXB0az0iWE1QIENvcmUgNi4wLjAiPgogICA8cmRmOlJERiB4bWxuczpyZGY9Imh0dHA6Ly93d3cudzMub3JnLzE5OTkvMDIvMjItcmRmLXN5bnRheC1ucyMiPgogICAgICA8cmRmOkRlc2NyaXB0aW9uIHJkZjphYm91dD0iIgogICAgICAgICAgICB4bWxuczpleGlmPSJodHRwOi8vbnMuYWRvYmUuY29tL2V4aWYvMS4wLyI+CiAgICAgICAgIDxleGlmOlBpeGVsWURpbWVuc2lvbj4yOTg8L2V4aWY6UGl4ZWxZRGltZW5zaW9uPgogICAgICAgICA8ZXhpZjpQaXhlbFhEaW1lbnNpb24+Mjc0PC9leGlmOlBpeGVsWERpbWVuc2lvbj4KICAgICAgICAgPGV4aWY6VXNlckNvbW1lbnQ+U2NyZWVuc2hvdDwvZXhpZjpVc2VyQ29tbWVudD4KICAgICAgPC9yZGY6RGVzY3JpcHRpb24+CiAgIDwvcmRmOlJERj4KPC94OnhtcG1ldGE+CreUIzIAAAAcaURPVAAAAAIAAAAAAAAAlQAAACgAAACVAAAAlQAAN9jjlVzPAAA3pElEQVR4Aeyd53Nbx/X3lyTYRBVSonoj1ZslS7LlEjuJ49iZ9F/ak+RJm7zIZCbv8sfkVSaTSZ5J77/EiR0ntuPERbJk2VbvVKE61ShSJNie7+fcuwgEgw0ASQDcHd65AAjs3T179run7dmKIRUXSqBAoECgQB4UqAhAkgf1wk8DBQIFjAIBSAIjBAoECuRNgQAkeZMwVBAoECgQgCTwQKBAoEDeFAhAkjcJQwWBAoECAUgCDwQKBArkTYEAJHmTMFQQKBAoEIAk8ECgQKBA3hQIQJI3CUMFgQKBAgFIAg8ECgQK5E2BACR5kzBUECgQKBCAJPBAoECgQN4UCECSNwlDBYECgQIBSAIPBAoECuRNgQAkeZMwVBAoECgQgCTwQKBAoEDeFAhAkjcJQwWBAoECAUgCDwQKBArkTYEAJHmTMFQQKBAoEIAk8ECgQKBA3hQIQJI3CUMFgQKBAgFIAg8ECgQK5E2BACR5kzBUECgQKBCAJPBAoECgQN4UCECSNwlDBdORApwrNzg4mLr8OXMVFRWusrLSVVVV2X260CYAyXQZ6dDPglHAg0hfX5/r6elx3Pv7+63+RCLhampq3IwZM1x1dXXBnlnsFQUgKfYRCu2bcgogeQAWyWTSgAPw4Ort7dWVtP8NDERAUlWVcLW1EZDU19frdZ2rr69zdXV1BixILOVYApCU46iGPhWUAgBGZ2enu3Hjhrt06ZK7du2aXt909+7dcx4YMlWbRKLKzZo12y1atFDXIrdkyRI3e/ZsU3f8bwrayCmuLADJFA9AeHzxUgApBLC4deuWu3r1qrty5Yq7fPmygOS6fYaEMpItpKGhwS1cuMAtXrzYLV261C1YsMDNmTNHEkr9iL8rXooM37IAJMPTJvxnmlPgzp077sKFC+78+fOure2s6+i4bipNMtlnRlakEKSL4SQMjK7YSQCOOXNmG5hs2LDBJJRys6EEIJnmkyV0//0U8JIIEsiJEyfd2bNt7uLFS6be8O2xemWwrQwMDBjQYDdZsGChW79+nWtpaRGYLJaqM6tsVJ0AJO/no/DJNKeAl0SQQk6ePGk2kb6+pEBhMEWZkSQR/yUkFi+1AD61tbWym8xyK1eudNu3P2gSCh4e1KNSLwFISn0EQ/sLRgHvnUESOXLkiDt9+rRJIl1dXQWxaXhgwWayY8d2t3r1ajdv3jxzFResE1NUUQCSKSJ8eGzxUcB7Z9ra2ty+fW+bfcRLImORQEbrkVd1kEpWrFju1qxZ4zZt2uTmz58/2k+L/v8BSIp+iEIDJ4sCuHjb29tNnXn33fdMpcFYilpSiOKBhDoBk1WrWt2uXbvc8uXLzShbqOcUoq3jrSMAyXgpFr5fthTAxXvgwAEDkvPnL7i7d+8WdIJ71QYCAhrLli1zjzyyS4CyyoAFG0qplgAkpTpyod0FpQCTHDfv66+/LiA5ZR4avDcjxYnk2gBvi1m4cKHbuXOHqTi8Ju6kVEsAklIdudDuglEAEGFyY1x96aWXdD9j73lAIWwjmQ31QDJ37ly3ceMGt3btWnMJNzY2Zn61ZN4HICmZoQoNnSgKEOuBoRVX78svv6K4kbMTIon49ntbCXEkK1aslESyWoCysaSNrgFI/OiG+7SlACBC7MipU6fd7t1vylvTPiGSiCewt5UQ3drcPM/cwNu3b7dQev+dUrsHICm1EQvtLTgF2E9z8+ZNAckpt3fvXosdmQiVJrPhGFfZe7N69Sr38MMPW4Ba5ndK5X0AklIZqdDOCaOABxJUm92799gO34kwsmZ2IABJJkXC+0CBEqYAuUWQSACSN954UxLJxYK6fTNJ41UbcpTMndtkqs1DDz1kqQYyv1sq74NEUiojFdo5YRTwNpITJ06411573YLSChmIltlwb2xlVzCpBTC27tixI9hIMgkV3gcKlBIFiBfp7u62+JFXX33V4kkmUrXx7l+iW4lqXbt2jdu8ebOBSinRLb2tQSJJp0Z4PS0p4CUEvDbEkZw5c2ZCvTYeSIgj2bBhvQWktba2uqamppKlfwCSkh26MTScbeyDA07RVfoyW9p1HxzSywF9rtcD/XrZp8/03v7H/+PX+j5/9xVLN0oiH+094arUB/a6ylWwFb5Sd/tcd/anVPBZ/H3+Z59RiVV0X9XF8ObcuXPu3//+j3lvMMCS0HkivDceuMiehtuXXcBEts6cObMYyJBTGwKQ5ES20vjRkIBisPeeG+pPRgAh0BjS5Bjq69XV4wZ7utzgvTtuKKnvKN9G9Llex+AidLm/o8oGZmBRmXAuUeMqEsqSzr26zlXWzHAVNXV6XeMq9Z7PKqpr9Z2E3Sv5H99VcmQDn/trLop3V65cdQcPRntt2tsv2l6biVBxvLGVvTaPPfZo2Gsz2aPPAHg0JxqR9xRWDTZBcU3EwE92P0d/HtIC0kYsQSBFABIeDAAOex+DRbJH7wUU/QBJBBiDgEdvt4CkU/d7bpDfxABjwIOEwpVeYkmkogoAqRYo1MRAUisgicGjRuAhAKmsqY+ABDDR/yprGyKgSQAugA/36LsAUoUklgikdAewpqAQlMZ+G/baHDp0yF2/fr2g/OQBBEMuwWgtLSstfmTFihV2hAW8W6qlpCQSwMMfCYDoiZGMwgCQaQq/fLnlwszKWJrgSBtM+EGBRCRZdLqBzptu4PYVN3D3hhvqvq3P7wokugQw95zrlxQCiJg6o6MTYvWmgroAZEBJn3E3NcdAOkMiQSVhkutKqTcGLvHE538pFUaqDAABWBjICFiQWqrrXWXDbFc1a76rmq1rjq4Zc/Q//g/g6I7UMgUF3iKJEYFpr7/+hoFKIVUbvwhGWdJWmEqzfv16C41nEeRZpVqKHkhgcgaYLd3ki7BLr3nfp88hfhWHEgnl2T3JxifS/qNvAiylLaF4yUMSByoJYID0kOw2dQSgQDUZ7O40ycKA5M61CEhQWQCR/h4DECQSk1LMBhIBhE0SJAHAIJ8CGKXV66vCJhJJL6hBsQSSkORSD5DM09VsQFI5o9FV1glk6mcaqJj04tUjJBwkGGvnxE40eI3JTsLnPXveMqMr/Ab/5VO8JGK8qkUPl+/mzZtcqwysZEsrZduIp0tRA4kf2I6ODlslMIZdVho8goe6BCQYwwARr9YwIAuUbQqXGtmnGLCSllBiycOkDoHFgECi73q7pI7LbrDzhhvo6nCDd6+7ISQPL2mg0mhSYzRNGU5VD6pQpKpgdI2GP1oANTnzXQmtwv/Wm2Iu5j11e5XIjK8YaWU3kdRRUSkVidcAhSSRSkkmlTMBlwW6FrpE4yJX1bTQVTUIaCZJUoHnbt++7eC106fPuOPHjyt7fIfvUk53L4mwsDU1NbqWlha3des25SNZagdncTpfqZeiBRIGFN9+R8cNEzGPHTvqzkl/RW9FlyUacVCqDkDiRUICfHCpLdVhRAAJSXZBfPYzTGSAUcGYIAaOoWSvjKQyhAIQuga6JXXcveX6b191/R0CEgHKYPdNXbfsjuGUkpIwvJSRAogCgEWunYxB5r6f8xnghhTTL8BTOzHSVtTNFJg0RWAyW2DStCACk9mSXgAZ/T9SgQQ6tZJgMPZaH0GswhWfcpFsaYcPH1Gka7sk4C7juXTbHE80mqfoHLUB3uXy/0cqhv8aG+doP80yh22E1AHwarmUogQSBgEUx3K+f//b7rgiDjmYqFMAMqDPPcLzvfSBRDIB3euE/EgnLUL+nTt32h29lBWhmIvZPO5J0rp11fVdOeP6Os67wZsAx3UBRuxdSakoUnUGZeswCSQyilbYfPKgwd33NvXCfzDJ91gE8k+1t4BJfPG5xs7sKxhwTVqRyiWjLkbcynqByGxJKE2LBS5LXWLeUlc9f5lJKhPhBYK/sL+h1uDJwQB76tRJe51umxvOuO/5k24BIvAerl68NGRD865e7HrlUooSSFgREC/Z+0DGKgKFurq77IyQkSQLD0B4M3gdZeveYbkesIxjP/HSSzEMoKkj8p6Yi7ZXkkfXbRlMO1z/jUuu7+pZN3DjQqTGdN00mwgreEVCEywlcRCrMdUgUSBKAio+cAXJDA8T6pkKruXKmfMiMGlc7BLNApJmAYkMtZX1UnvqdT6M7Cvmci6gLcVHvJKCEV7kuM7bt+9IUu6y/CX9kqbgM39FC1mVMJGr0hwAXkpesmSx7aUBTLDhlVspSiBBJ2Xfw9GjR+XXP+iu6qxVCoOTLoFkGwwb1FhqwT4C+q9fv8H89YCJryPbbyf7M1yvfQKN/uvnJYGcdv3XzruBm5dMZRkakGEV6cM8LQSNIXVosgEcBh7+PtmtnsjnASYqhinRYsBbDK3YUZBQTGrBvSybSRVSyoLVrnrhGle9ZI1LyLZSSFuKlyxY2DDu37p1W2f+dph6zfm/HOXZ1dVtoILKU12dMIM/Esjs2XMsUrVZ+UaIWOUc4JkzG+zUPRbDcitFBSSAAIMXWc332NkiF6Sn4pIbSRLJHBRfT6UmXEKDtmb1Gvf00x9x69atm9KBZJU124fUl6EeqWlSWTCe9l07JxBpkwRy0Q3qM9y1FWJKycXMovgqE8kjc7DG+h6JBZd1uqQie0qiudVVL1jlqhevcom5S1zVzLlyL0sVmqEDu3Ep40rO1ysVtxG7HJIyh4kDJBj9ARiABiBBrcZziMSBXQ4A4dwa1OxyOQhruOEqKiDxcSKIkS+//LJJJd2KF+Hz0SSRzA56MBnU6WjLly9zTzzxhKk4eHKmKsnuQNctSR5tLnnppOu7eMRUl8G7ivdQYNjQoKQOpA9dqDBR+DngUY6SR+ZojfG9gUmapIItRXEpFXIpV3JJ/Uk0L3eJxWtczfKNrlrAYioP0kwBCnyIuoM7GPDgNZ5DPoffkHa9YZWFD/DgAmCKSRIuACneV0VRAQkDg/SBSvP8Cy9YMl4GJle7hh941BsyUG3WYUR4ciYryW7KBkK8hzws2D6Sl2VEvXTC9V0+5gYVPEY0KgWvRWT7mOaSx/tYdIQPYs+PZrLoqH0xNQ2uSuCRWNDqapatl0F2pdQfuZNjKcU8PgW0oYzQsmn3r6ICEi86Ep78/PPPuzYl4SX5S65+dtNxtWI0Nze7LVu2mERCJCHi5mQUbwPpu3zSJdv2R+qLpBJz6+Kylcclsn0IPPBalIvhdDKIa89A3YkvNiNiQyMmhWA2QEUBb4nmFbKfrHU1Kx4w1aeQNpRJ62YJPKiogATXGnonhxQBJGTzRg2pztFNhvcGqQTgAEDI1D2hRyTGcSAWsq4w9f5bl2X/kCH14nGXPP+uDKkXpeYT1q+4CYuBwAYSJJCCzRMvocTxKRXa31OFl2fhKle7YovuLWaQrWqQHUWeHpMCC/bw6V1RAJICjr+PA+m7esb1nNhtADLQSQzIrShcHS8MK6jZPYIEUkDSx1WlSSjQWZG0tt8Ho6uC2RJz5TZettnVLN3oapeul9ozOZJp4ftZfDUWFZCg2iCRoNq8IBtJmw5zxg+P5yWXMlmqDdvviT4lBmRAUkjy4jHXe/ItU2UGFR8SxX8QhRkkkFzGMeffpEsoklIwxlYvku1k2QZXqysxb7nZTwAZAxzsJ6HkRIGiAhIs4YS/Hz582L344ou2acrcvrhBcyiTZWztv33N9Z4/4pLtR1xf+2GpMO3R9ny271tQFatjkEByGMI8f5ImoRCcYpGyDZFrGFBR/Entmod1Xy17ikLzFUUbSm4UKCog8ZGEbJQi5R3buftj11ounhskEupctnSpe/LJJ81G4sOTcyNX/KsMW0jf1TbX03bAgKT/6ik3dO92sIHkReAJ+rGXUAB1heIn5i5ztat2ysOz0SXmr3AJ7e8JtpPcaF9UQGKqiICDnJkk4T127JgFAPXKb5+LHx7fPldrS4sC0p5WfswNBTn1PdMWkmw/aoZU4kTI+2Eb0oIEkhtHTuivYgkljs0htQEbAauk4tSs2CpA2RRsJznSv6iAxPeBDXr79++3yFZAhWhCA5I4RN5/b7i7BxCCgYgyXKedlgSktbYqvkCfEZuSS/GRqdF+mItSY46YUbVfxtXBZJe5ci2UO+jauZB3cn+DMTaOlCUfSmLROgWxCUhWPhDFnzQ0KbWBdhiHuJMxjUtRAglhx2yQOnLkiA4sesNC5i2yVUAyFsnEqzS4fQlCw+2L+5d4krH8fjjKpSJTJYEkz74jY6oARHlBSDQkrtQlV26QRIYjX/F9bmCiPUwCC5NOFHdSPZ9gNnl1pPIQJRviTsY2bEUJJN5Wgtdmz549Ziu5c6fT9fQqB4nsHkgcBixxH5nCqc8Ul4GBlkC25dppycFDZOmer4RHuYbGm1dGO3PZXNd77qBiQg7LtXtYIBJtJrRYEFu5pHuHUnoUsLgTZdtTMFtlg8LsZXytW/2Qq5aLuFou48qZkk4U92PSSen1blJaXJRA4m0lqDQklzl9+rQlmGm3BDNxZrQ0NQcQIU8J4AKIIHmsVWIjkht5ECEXSa4RsuQH6T17wK7khYPmlRlCClFWslRAmQWWheCySeHaQj/ESyaSKAELS7Ak6aRmyXpXt/4D2hC4Lnh1RqF5UQKJb7OXTFBzyFRF+rsObeMmc5rPOeK/y4QmbyupA8hDgmGVtAG5SSKRUY48IYN3b2p/zCnZQt6SV+awpJI27dztDF6ZFOHL6IX36tAlAUpi7nJXu3qXDLFbFH+yWlGx86MMbewoDuU+ChQ1kHjJhEA14kvYvk2SmRts31b2KuJOKEgh9QKQ2coDwYY8Utj57ds5SSKxe5e0hj0n95ok0nf5uLb9X432x8BwwRZyHyOVx5toAfF9MbuJElUnFq0xyQSvTvXcxeYi9t8J94gCRQ0kmYPEXhzABJUHYEkHEuwf5H0gDwSvc/LOSMQlKxeb7ciLmmw/5nqOvalI1aOyh1zVDtMe06Ntl25m48L78qIA6g62E21rIBF1TetD8ujIRSx1h7wnhUxPUA6EKykgIVKVXBCoPFxILBQ8Mbh0sYEgneSa/4Ft/6gzfUoy1Htij4yqh6TKnHWDXTonhs12MFeQRMqB78fWB1N1xGMytBJvkmhucTUEsC3f4mqV86RqVvkkbx4bQYb/VkkByfDdyPM/sSQyoNyo/cpW1iuvDEDSf/W0gKUzUmdKwSsD0JkbOoMe8ed2y/iXveVnhSjD2JrNDh0Hgb3/MbjMh/nh+788+Z9ANB9votiSxBK5hpWSoLb1wSjeRJnYODVwupcAJOKAlCRy6bjrPvBPSSIHLeWhbbjzk7PYvTLG8Fo9WUUzEQObD2J65udwvx0qXqBpAB5wsHhGiWKA2LCY4R6HpibhFfk+JE9bPDrKdVKFEbZ1h+U4qVUmNoyw071McyBhtZHrWJ4Ztv73tr3r7h16xQLNos12Yo+plERs4kdtVEP/iw/pEoTNRfaOEOcgbwLMTps5eEoqn01UkwbUl3jiMrHtc+5DunB7pn/G65GKTSwaETdE7yOQ0vsKXTFwWdImgM0Kz4psULjNo4PKdef/Ajm+mwK6+PFRM/TGXvh7XN1U3ABjpcKs0PEYJJ0mWVL92l3a9Neqc3emt2QyvYEEhhdTs+2/e99z8s4o+ZBSAViMiGdUz8T+/WTdbbLGEgYM7CUKL0EwP5lwVQIBzn7hYCkxOMdhVtYpaU+ddrkicus0uwode2kHSnEIFYBDrlMSK3H3oEPAlf0vi+SQ2WejmyZ/DBLWNiVl1knkUTvJPStbE4F8nL1jCZtJ2kxAIYeXk3qSI0WVAHtQ11CPjhbtkUtf2ewcQgv9kmSTkmQ8mE+1fcqPCe3QPh3SENS07nQYYae7ZDJNgYRVU5KIcoj032h3ydNvu+53n7cjIaKVmpUcbp7gAmOyqsd3/9akAya5XZrwqYmEtMHkjy7LMp9QekHtCamsF5BwGDcn0pH9S9nBKiWGAxbc7TxdAYplVQcwZJi2c3lVtweW6HljyLoeA7BJE5AIaQKgIEAPwBOAGGAoHy2f4fkgN+0QB55zbrEHEk4QNEAhq74+5zsO6QRAis61sUPOMapTL/Vw/rGM7ull0iUX2pImmQAkdesecTXKxDZdvTnTE0i8JKIkzN3vvGD7ZkhIRIrECEgmCURY0blgTLsEKgMK/9cW98oGHV8p417lLG1t16ay6DjLWXZ0JWJ0BBbKTQrYmHQRSRum4ugzkzbiREqm4hj4IG2ob6yotuLHyz+f+Uhhm5Wj9T8Cv5QqEoNJChDVl6hP9I/vorZ4MIiBAi+YV3FSAJQ0ABoAaGT45nRBXPF2187qAZ1zPHjnih3pYbYdnjsVkkvcJ6MjkknzSgHJY64GyWSaenOmJZCQfLlfB1H1ntnvut/+qzK6n4glECbZaJMofS0c4+vUZNKkUqkw0VhSQUqyiMEANaSCYyp1tm2DwELuRY6qNECRlFEptaXKn9kyQ++l0piEQX1lULzR2+J4SJKt/U1ILIPdugtY7OjSTgEJUoyyxkdSkIISBUomDcXSj94IvGKCGHAyphMwtrFkwvgkFsub07ItspksWDntImCnJZCQiOjeoX+5Hqk0/VdOGJOm1IdCT0gDEUThSFRnJeUsFgOHBh03KdsG2c45MNvu2iBWxfGTgATZ0E098fYLL33EqompPPEkKXS7p6I+0cokM4ABm4upS4BE/Bq1pl/qkc4BGuzmiFNJKXeU3pKzkZUb1w5XJ3BQWxi8+jOhR5ymJBOphzpXp3rRWlf/wEckmSgVwTSLgJ1WQIKODvP1yr3b/fbzLnnhsPR25VSFUb0dIp8JlCl5cCaPRN/Io4InRdKG3mMQBTQqZ+k8W4Bj1nyXaFxoZ9lW6X1lnfJgoJ6UiaSRD0mz/dYnlmIs+28DIKg813ROsqSVO1JRkWY01mZzIeE2thUvtXDwOuNUSEmFLH6yC1kE7CpFwK7a4epat1kE7HQZx2kFJP03L7ueM++6XkkivWf2KlHzJfFTLPKaSsPqnmMxEEmTPFQNBk5UE86orVIav6rGBRFgKHt5dKRkg9k3CGiKpA/dOZeFxEv5tifHbpTEz7C5oMYgseAZ4kJasQPZuyK7SpcM6cqly34pAxhJKmZ3kVqLbaagkgpjj0E4joCtUab6GTs/6WoVATtdjK/TAkhgOM7cTV48YSpN79n3dFzmebkj79rENWlkPDMIxknztpjkYK5TXKqoHTKWxi7ZqkadR9u02FarROMivRaooNLoEGxbrcbz3PDdkSkQAwzSyGB3tF+Ks5UHbl3UJWmFo0EUM0SgYeT9wQvEEamxlELtSIEG4iM/Kut/Y5sJh3LVP/BRS45UvaAlylSfUkOz/rLkP5wWQOIzm1nA2ZF/KfT9jJhH6oyJuONkHJM88EbEXgg8FFJXzNaB1KGox8Q8HcoEaEjyqMLzwnEHsb2DmA6TOsqcsaZmZgjgNT5RXAsSi6QUUkFwtrIWEoy2BB/2C1Q4uIxs/wO3L1mybgMUNdo8YLkeG2K8oXOq7WCuJa5WeWDrH3jKbCflvnCUNZD4QKn+6+fcvRNKByAvTd+FA1qVOsYnicAgKTeAXgoEsH3YJbXEvCmoL5w7O0/ZyJVVK0geUwMlWZ+aKancviogOSe1R9eNC2ZfMe+QAMcOcsdmxgLBmI9XQoFXTF2usmMu6rc+I2+O9uXMY8fwrKzNK4cPyxpIEHEHOpWY6NwBxYv8zY6LQI82UXasDGKrTCyBMOL6nRlL50hdaVqmjVuSQAAQ2T/ME1MjQyknuwXJo4jmR4akgk1FEsoAMSps1MSWcuOipdK0PLzKO5PXwWYxz2BEr166WSrOdle/7lHFmywrIpoUtillCiQR4/TLmp9sPyHj6j7Xc0R7aDrOj1ESiX6fIrXsHpVy71m0KPEbeFkUHo30Ua3zUKpQY8IBSylylcoLH7dibuSbV4w/+q6cilQeSa0Wr4L3RyqSefZM2hiDKhyrvebmF6/ULH/Azdj2USWV3hBFGBNAWGalPIEkFmWTl04q9P0fLtmmjO83L5hxVRbOSPQcaSBjRrCvSI0x+8e8lTpESfkoFrVKAlGWLB1EXRWHolvMB3tVsHuEUjoUEDBE6q+Mrkm8PopPkSF2QCcD9N+4pI2cbUryfSxSf7pvGpiMzYbiF6LII5hQZvr6TU9FqQd0kDnG9nIrZQkkJCdi8x3eme63nzNmiBITSUXJapH3Ax8Nr21eU9CYbXwTWFTNWaTdnqvsqoERZs8PXpdymwlp/WGrhKk7185Koj1qxvn+24pP4TD48UgoPvKVRNLLFD4vFadurY4I1TEX5RZfUpZAglW+58x7UbzIqd3m/ou22A8TSu4lEERXFaSNhM6FBTyqFe6cwH1L8Bgb4rSr1uI+gtclbeqV10uLUTE7iiSUOO1mn2wofVfOjE9CiW0lhASwI7tmueJLdhBfsrns4kvKCki8l6YPlebgy+al+W/W9xrzttzH8gw0gUR4YfC+EECmvSyJJhlPFys3J0CCDQQQCXEf95FuOr0ZVkIhBacC3MyGYosQqkwWGwoLlYLgTMXBi6N0jSxQ5aTilBWQpLw0yivSte/P5qWJjGSoNBkDbCBCaLMS1dRKfdEOzpola13tys0SPVcIUNhxK8MqxzYSeRokkOmEHff1dVgJRcnBe9v2KbhR9jdcxiSIUjDi+wIcYyCxzX0L1+mIi51uxuYPCkxa7ntOKb8pKyBhz0XvhaOu99ReeWkUeKYBvm9gvajJiLFtXp6Yyjrte2lUAJlOV8OqXqszTBKKPi03HbaUmbTY2u4llL7LJ8Vrb8koeyqKmJUahA3FwgtS2enU+lh1Jj0E2dXw4jQ89AlTdSxPTBl4ccoKSJIXj7uuvcp0duZtRSxe1qCSXyTNSxMbvzC44prDC1Mn/37Nkg0yqLL71u+BUUIgM8rmsfem2Lg/tKdgFPASCukoLA6l44LrFe8lz8vDo42gnDpQocPqyQkT8VFszDcT3JCpOHVbntbGvu0KWisPL05ZAInfS9N75h13943fWPJmLQtRMCpYwAB6W4jtgZkj0JB/nyMZNzxuEYjTZXNVwWZTqChFAdzFvbLLJc8fcX3aFNrPPi4tYoP9Cn5E5UESRrWWZEIofiVenOXbTMWpV2a1agLVSnzhKgsg8XtpehR4du+9v1vy5iiNIIMHiES2EPPGLN0YqTAcEM1p80gh7IUJ2/ZTEyO8GB8FUmkN7ir+hH08yrzXe2qfVB4dZ5KKP5GEYmDC3ixt6qxvtND5mY/8j/hxU8nzX4kDiVBCaN93/by7d2y3DV7ywnva5XlNNhAlAbKUg+zGjXKWcpZrtbJY1SzfNG1T4o1vioRvj4cCPlK2T/EnvSd1VvSFIyadsLeLUxqjrRmIyLrEt9VLN7iGXZ8ToOyQhKzNndpaUaqltIEEUVFuNU7Eu/vm72VBfyfKSm6DJuQn96kykFXLFmIHGi1eG22oQwohCxkW9lACBQpFAYEDIQikrCBdARsDe2UzMUC5eCSynSimxKs5VU1LXe3ax+UO3uFqV2wu6fNxShpIyFTOprzeM/tc15u/c33tRyJdU9KIiY8KLMOVW71so6sz331LAJBCTZpQz6gUSNlOAJO2/W5Au9Ax0A71YTvpFy/KVjd/tUW8ztjyIdnqVpVsmEFJAwlhzL3nDkmlUcazE6+5AW0LJ1u5HWA0r8VVY0xVyjs7wIiwdqSQYAsZdQKELxSGAt520q+0Bf2E20vVYQMpxljHRkB5FHH/kn0eFYcDt0o18LFEgSSyjSQvn3ZdB14yIBm4dsos5RZcxsFFy7aYn94OLtIW/wAghZkcoZbxU8AHSnJaQc/x3TLGHlV4gpJUK9ESUbFsx5jx8GejiFfFMGH8L7VSmkAS20bYlNf5n19Y3Aj5JcweslyboxRUZoFlcquRdKhSuUFK3b1WaowV2vtfCvitGySltgPZiIg9uVfHoJw0x0DlzHmuZs2jrm7Nw1LBlTS6adF/f1wir0oSSCwbvIxZPYoqvPvaL7WZ6pSyscseImSvXfuobYoql0CfEuGj0MwxUMB7dcjY16Po6+TZg5JOTlpsCbl9a1c96Bq2P+tqFq8uuYWvJIHEh8L3yMXWo815HOVYu3qXeWYIcydjWbmEHo+BP8NXSoUC3qsjgytn8CTbj7ueY28KTBRir8PAapasc7M+/H/Fx9tKThUvSSBhO3f3Ae3ulaGV80yqZje7uk1Pmk1kuh1MVCpzKLQzjQKxak56x55T+11S0bBIJ5ysOPOx/xGQbFfm+SY7JC3tV0X9siSBpLdNtpGX/5+ynl2xU81qVmxyNYpUtc125EvFMxNKoEDRUiByFhC+MHj3liSTY+7ewVft7Onq5evFy9o8KsmaBbJUSkkBid9Tkzx7yHW99Rfpln2ufutTcptFwTwkHQolUKDUKIABtkenHBChPdSvvCXKOF+/4THbwlEqfSkpIPF7ajgxD52SuJAaBZuZJELOkCCJlArfhXamUYCTDQa0T4dwhh7FRHG4WsO2Z3Qezqq0bxX3y9ICEh0Y3aus8IQgc/BU1WylRJyjQLMgiRQ3l4XWjYkC/dcvaM/YGxZUiSuYXcGlEv9UUkAy2H1H4l+77a8xANHREJa9LEgiY2LU8KXipgAJkwhUGyTVgM5HYoEslT1hpQUk8YFXsEM4R6a4J0VoXQ4UiL05FlovXq9Q2oEAJDnQcbSf+AhBvsf5IuEcmdEoFv5fWhSIvDlDJOHSLmKisYNqU1ojGFobKBAokAcFSkq1yaOf4aeBAoECE0iBACQTSNxQdaDAdKFAAJLpMtKhn4ECE0iBACQTSNxQdaDAdKFAAJLpMtKhn4ECE0iBACQTSNxQdWEoMKTt94Nyifb19bl79+65np4eXb2uqqrSzZw509XX17saHUhVVaXD0EKZEgoEIJkSsoeHjocCAwMDLplMulu3brlLly7puuyuXLniamtr3dq1a9zSpUvd3LlzDVDGU2/4buEoEICkcLQMNU0QBZBCbty44c6fP++OHz/uzp49a0DS2NjkHnvsUbdhwwa3cOFCk04mqAmh2lEoEIBkFAKFf089BTo6OtyxY8fcoUOH3LvvvusuXNBZu729buXKle7ZZ59127ZtC0AyxcMUgGSKByA8fnQKXL582e3fv9+ut99+29QbbCZr1651n/70p92OHTsCkIxOxgn9RgCSCSVvqLwQFPBAgjRy4MABAxIMr6tXr3af/OQnA5AUgsh51hGAJE8Chp9PPAUAkvfee88ugOTixYtmfF21apUByfbt24NEMvHDMOITApCMSJ7wz2KgwNWrV1P2EVQcbCTpEkkAkqkfpaIEEh830K/8lbj9cP9VaEt1ZaXyM+giXqC6unrUuAH0aH7LPb34erhT73iLd0dyp61cFNqFSzKRGDn5tO+fb5//Pe2hX9zTi/8+kwcjI/f0fvF9TxOe7+sYa9+oizoz6cTvqZcrV1rRD99P7vTF99fXT92+ft9Xxt635/r16+7IkSPu4MGD7p133jGJhP8jkXzsYx8zY+uCBQtcQ0PDqPWn03W0177d0AY+5Jl+zD3NPd2JY2Hcx0rzbM/OHAfq8rTxY8DvfLtoEx4t2gfdGPdZs2YZD+bTjmxtG+2zogQSCAqR7t6967DYM3n8gEEsGGbOnDmurq5uxP5B4O7ubiN0+hcZcH473gnn6/DuSOqmrZ7hZ8yY4ebPn2/t89/Ndvf9o19cvKfAjJ4R0n/nv3/nzh3H6nz79u37+kU/eDY0YULNnj17XAFaBHhRJ/f0Qr0Ee0GrfAK+/Dj4yeiBhDEF+Lion0kDLaFJV1dXatzgAdy+eG4AFGgATfDafPjDH3abN292zc3N1lYm+3D187zxFN9u6I77ubOz02hEG6EN7YYXofe8efPstQfE8TzHfzdzHGgvdOE5jC/PpPh20ab29nYbO+jR1NRkBmh4MJ92+PaM516UQAKhYCR04cOHD7ubN28aQf1kIWYAJmpsbByxrzAAYjAEhzlhMgoTbsWKFRbExOCMh8FgUlZImJqgKNrqL9qFB2Hx4sUjtsszDPXQRxiUAjOuW7fOJgVtYuIxwQnE4mJC8Rs+A8x8f+gDtIGhmVAEZ0EbrrEALnQiRuPatWsG3tCKwiQBmGBM2sYzcimM3+nTp63ttJmLvtG2NWvW2DMAK1ZRaEk/z5w5Y+PO81hQCERj0viJwzjQLkBk+fLlKfCkbiYVF+3lO2NtP3UCEtAWGt+8eUu802H8Qx8YJ/7ngYQ2e56E5kxkaM44EHELCIyneBWOcQAIoD/1MqbwFuNMG+Bnvgv/YT9i/OjvsmXL3BNPPGFzA/6hjskqRQkkfqJhYPvLX/5iTMiAwcwQa9OmTe7hhx+2iMaRCMXkeP31193Ro0eN6DAkBWs/IjGBTAyWR/qR6uJ/ntFOnDjhXnjhBQMTv3oymNT3rW99y0TtkeqCSc+dO2eiOu2jnZT169e7z3zmM27Lli3GoDAMxkXaz0RkgsEwtCO9MAHTxWoYGrGf9jzwwAPGhOnfz3wNQ/IcVntWfp5DYQJSB/Tm4n0uhTr//Oc/Wz9oP5IcExMQ+epXv+oefPBBk3roFwsI/X3xxRfdqVOn7HF8DkAAMtDb04A+p4fHQwe+y/fgIfhl69atRs+xtJ96ATjAHXocP35CY3PO2sr/PEjRKJ7FZOWiHVxMdp7DOOKaBgTGU1DdfvGLX9jiCQhRH/TfuHGjASbAAG0YJ+4ADqDmC8/97Gc/a98PQCKqgPow2u7du93PfvYzIxpAAmEBAYxrH/rQh1xLS4unYdb7yZMn3fPPv+CIPWCy3rmj09/FaEzUr3zlKyY9ZFMlslamDxk0GIrAqN/85jfmRaCtrBK0lwnx/e9/X9GWjw1XhX0OQNC2PXv2qH3P22sYk99/85vfNKa5p4lwQW3GuAjTsEIzyQA+P3n4jZ9gTAAmEBcrIhIbTEidgAogAA2zFb8S7t2717322msmxcGITAR+i5T1kY98xLW2tmb7+bCfQSvaQx9++tOfGr18mwETJvl3vvMdt2vXLlu96Qu0xA7y29/9ziYUlVdpAjFR/cT1Ky31e0mTsfGTinoYF/iFBYf6R1p4fDuR+gARAOzQocN2v3ix3cAFPoF+LDo8Px2w6Atjg4QFkMBf9A2pdywSoSfgW2+95X7wgx8Yv/IcFk1oz2KApEpfGSMAh8WM9vI9aANdCcz72te+ZvcAJKKqBxKI9utf/9pWSQaRydAi8IBgTz75pE0WPwjZ7jAEK9s777xronFn5x1jACbYF77wBZtkuQAJK8If/vAHG1BWPiQdpAyY53vf+54xbrb2+M8AHSQMAO4f//iHa2trs0kCA37pS19yTZrA+/bts35flkiPhMAzEspTi6rR1NRoTA0zIwnxbJgKMPE6NWI3YvaiRYuMuUeiF3UjldCe//3f/7UJxO/9pKFfMCj38RQvWVIvwItkQr2I/bSNCfKJT3zCJgmTk/YDJEwUJNFj+r4V9ZO+cjFhuCi89wDi73zOa8AElYBnsPCMBCS+nQD2K6+8YsDOZ1zwIjzCAobKCjBAY8AH2qNaAD6o0LSffgEA8Bhq11gkQtpMAUB//OMf250+LlmyxO3cudNUNxYPJBD4gkWRdtE+gJr+8n36+e1vf9vAJwCJCOqBBKL9TisT6AshYQxWWhiaiQHij1SYrC+++A9bCZkod+92GtERAT/3uc9ZPbkACQz3pz/9ySQTBpPVCKaCab773e+6hx56aKRm2aRnvwgr9T//+U9Tc5i0q8SsSFpMKiSDc/oOTFJdXSMpY5ZJCAsWLDRmhR6DShB8B2lIEg5MBphAOxgaRoeZmLj095lnnjFAybZCwoysqojzv//9700Cog18zsRGtEZlg6kx/LECjqVAE5iefv7973+3PTLpIjv0YoIzYSi+HQAr0lq7JigFGtO3u2oLtKZ/gAh9Q33x6iltpniAoa/wCCDAxIZ/0ov/HnYnQI52/vvf/7ZFB77g901Nc9W+xSMCCX1k0QJQAHVoBJjQP8aT59PW0egG/X/+85+7d6XSM34LtHDC60iGgD12IuaCl36o0wMrfUdq+dSnPmV95b0H3PQ+T9TrorSRlDuQwGx+giExYS+B+WCYZTIcDoqJzmgyJSXKMlFaJIUhrWBUhMFhIECCieDVAYAEZmYywHD8zxdEfJjaX7xPL4AVjAuTMuFR3Zi4gAgAg3qD7s2Kh1TIxB1L8bYXIlK925Zn0Q+Mgqhd2Em8LcG3g4mC+gcfUJDIkE5Oq38AMP8DdJAQHn30UbNHYBeCLr7Qf8AZSRYJKNuCQZ8BJQznf/vb3wxIkRYptGn16jW2KLS2tpi6CHh7Kc3THpCD9qieOAZY/AAmvsvERiWE7rSVdoxUDoruv/rVr2zho3+NAjLoA/hCS/oNoFAPNhhAkrGkb4AUwAeAodpOJojQpwAkGgQm8ViKZ/R8JRJWakTh9JUaxmMi1OqCSXs0iebMadTqst4kCZiRlRumAkTSC8wMOAEk2JVYXbF7MCGpi4mPSkQdTz/9tK2Q2URf2sTvMXIDKkwIgIpt+o8//rhNfCYH4DZa4blMelZ4VlqAk4nAxGWFZuUESMYCTAAj6hHtQq1EncBeAMARIg/AMaFGm6iZbYY+0Ilx+Otf/2r0Ayho05o1a0WvLSYxMTlHWuG9tEA/X3rpJaMdY0Kbdj3yiLVvi9QcxmCkCW62t9/+NgIS0QmeoA5+c01jwTEVABxAzDhgs/LqFkDix3SkZ2TSoFDvA5AUEZDAxDBBjYBt1sxZYubVmsAf0OqzxlYbGCsbQ7OysoIhReAehaFfka7P5KVODzyI96h0AIo3HKYzEis/AMLE+s9//mN1AVzz5jVr0rbqd1vdBz7wuDFy+u8yXwMigC4r/XPPPWc2D6QbJhftxCD55S9/2WxdY1GVJgpIqBcJAokJuwz9B8hZ7QFcJj/qELQaaXICtvQNIP/Xv/5lEh11V0i9AIS2ST156qmnDPiyjZ+nnweSAwJM6MR3TX3RnWcAGhiO16l9gBISCDzh+YY2jtRO/5yJuAcgKSIggXFgGFYdJhtGZewt3oYwGgPAfKgiMCQTmNWbz5ACYHRWcHbLsoLDiJkqil+hUUP4PTYmJnqkHsyyFRpJApvLSAxLH5AYALTfyyhNOwCXhCQp6gPIMHZjexlLKTSQeKADNPGaIekAIpRm7BJqH+EBAMpIEz+z7entBJhQk5joqKWfkWq4WWOaDuyZv08BiejWr3FjgQCQ61RHs6RA6PXBD37Q1J1sC0FmfZP5PgBJEQEJA49dANHf2yRQI2CasRSvemFzIT6FiYx6AUPDlAASNgUAKpvxEdDh+Qc0Cf74xz+a0VUIYL/lf0yIr3/966aSjDTBAC2kIyQb6jmuCVsjyQiARK/HgOgDp8bSr/QJWgjVxttGkER++ctfGvDSDsB1i0AECQK1CwlgJMDMbLtXWan35ZdfNiAGtAAAvHHQ3RuGM3/L+0wggeYAMu3aIUM37WKBQd3xaky2eqbiswAkRQIk6QZUJiyBWky4kSbscAxjxkmpFTD0G2+8YSoKjNfcPN+kiW3btmZ1h/qVGsMmNgNW1TuyvWADQFpBEiH+Bu8NBj7Unmwl01uDIRIdHt0e0ZwJxeTK9KJkq4vPCg0kAB02JewuhBdg86IvADjGUdoH4KE6jKf4epFwcKNjfAUIkGw+//nPm1sWMEVKyVYAcALSWAAAcA/sGNtxkyNJAm7QvthKAJIiAJI2eWgQ+WEQvA+I/h//+MeNAcezInrmQqrAsMlEQSIg+A2gwpWJ4XTr1sgtCYNmFsAE2woAxIRA7weYWMWZXB/W3hZWa35LzES2kumtwYjLhMIDQeQuQJRNtcpWF58VGkgAEaQ2VDiMo6hw9A8p7Ytf/KJNWEAEmo2nMPEBXOjm44zoN7RCVSK4DPrjVclWfBwJQAI/MBbUR7tYWPj9SBJNtjon67MAJEUCJKyIrNBY4pFE8JIwcXMpXnQHSH7yk5/YyggDMjlYEbdswQbwrE3sbEA1nETD5EeSoH2AQTbbDcyf7q1hwnpvDb9FogGIxqPjFxpIcNeiIjHhCXoEOAEBgM7HYYxkyxhuTDzdsb0QaMgd+xQGV2wbSBTYqRiDbIXx+uEPf2gSCeOFFMnvCWz7xje+YZJSsak0vh8BSIoASBD9YVwmJtIIojUXUam5FK+iwJg/+tGPTEWBMXGPct+8eUs8YdZnVZ2Gk2hmC4hwjdLGZxXghiqQXvxzvbcGUR3VCOMrKywqGyI+ev54JkShgYT6sN8AJNglcAFjX6JvTFoAk77ob1zF97+j43rKfQ5AoY48IjcwY5rNNuUfkgkkXt2lTRinuY+Hbr7eybgHICkiIGHlYqWH4ZhsMHY+JVNUxrXJhMZ7gIrBM7BdYIdJL35lZaIRIHX48BFj4OrqhAEeDI0bORMQMr012Aioq0HG4oUCRSSZZz76UVuV05832utCAwmq1ptvvplS3ZCYkMywXSAtMIFp9+DgOJEk7khvb2SDAZABEoyjeN+QxDxQZetzJpAgtdGmzQLgz2q8kOhysZlle1ahPwtAUsZAkmm8q5SojOSzSQzpgQRgYZVLL35lJbDtuecioytxIPfuRbld1ktn/z+xFyJdRcn01mC0xeXLipyPpFVoIEH1evXVV02FQPXCOAyQ+CuSRnIDEejo6Qewopog4QAk2DgA0+EkzUwgQXqEvniSABKkmWyqaPrYTdXrACRlDCQ+5PqgjHessDBhQkCyUQxJPAmrI6svUkm2gu3gtddwI78ng+QZRbpes4kxXERppremTUZkgIvvE5CFpIXnZjhjY7Y28FmhgQRVEvcsEhd1A5JGG9HBqxPDtWUsnyM1QFMABSDBhY/0Br1HkjSzAQlgYkCiOJQN8poVawlAUsZAgvWfTWDcmSjG4OMAEoyuSCWoSMSloBJQB54HVleAIV1Uz/TWEMpOQSTHNsL3mRjDuY2HmySFBhK8NGyWhC60Gfc2QMuEH8mGMVz7Mj+H1lwUbC/0GfUGG9hIbuVSBpL/DwAA//9aqR2hAAA2cElEQVTtneeTJEe19nO8WTfrvV/tar20i3C6AiEhvBVvBF8gIIIA/igiICCCDwQXD8IIXWFlEFqZldZovfd+d2zPzPv8TvXp7Wn1zPb0dM90dWdF9NRUdVdV1snMJ59j8mTTqLZQY1tfX1+4ceNGeP3118MvfvGLcOTIkdDV1RUWLVoU1q5dG3bt2hWeeOKJsGbNmglLfvz48fDCCy+Et9/eHy5evBDu3LkTRkZGwpYtW8JXv/pVu8+cOXNCR0fHhPfxL7l2eHg4HDp0KPzmN78J7777bujv7w/37t0Lt2/fDjt37gzf//73wwc+8AG/pOie3549eza88cYb4S9/+Us4ceJEaGtrC6tWrQp79+4Nu3fvDtu2bQuLFy8uen2pJ996663w4x//OOzfv9/u397eHtr04d5f/MIXbM+7t7S0FL0l73XlyhUr5+9+97tw7Ngxk9XChQvD6tWr7X29HmhGp06dCv/+97/tefx/9+5d+z1y+drXvha2b98empubQ1NTU9HnjXfywoULYd++farHt8PBgwdVlxfDwMBA2LBhQ/j85z8fHn300bB06dIwe/bs8W4x5jzt4vnn/2rl5P3u3Llt96NtffKTn7T7jrlgigfU7axZswJtbcGCBdaWi92Sd/zBD35g5eL3/tkh+X35y18OD6vd1urWVM9AQgd98cUXrQGeP3/eOnsjAUlhw+xW4wSQ6dBfEJBsffjh0Nraap27WAPNZDLWwQC8n/70p9aJOzs7Q3d3t3WKHTt2WEfetGlT4Lfvvfde+POf/xzeEcDeunnT7r1s2TIDbDroxo0bJw0ilKvaQHLz5g0bDB6WPL7xjW8YQBaTR7nnAE/kzAcwHw+4C+srAkm5Es9eVylGcvLkyRyQnDt3LgckmzdvDl/60pesgff09AQ6RymbMxJGxV/96lfGSAYHB0Nvb29FGMnKlSvDI488YoyETsooW85GOYeGhozR/ehHP7JyMlrPnTs3zNP7cu/PfOYzYfNDD5XEEGBeP//5zw2QuS/sA1axVczmWTE7GB5MDbn89re/DQe0z+h3MBdAC4YF01q+fHk5r1NxIPF2AVMDpK5du2bsaevWreFb3/qWlRWmRsefzi0CSYWlXW0gYWT87Gc/aw0c9YERtpTNgcQ7FnvOod5MRbWhYTNSMXrTmFHdptLxoP2ocTCJn/3sZ+Hw4cPGRObPnx9WrFhhI+6TTz4Z1q9fXxJDQE3517/+FVCV+P/69evGQADkr3zlK4GRHHBB5fv1r39tzIRRl/t//OMfNzmjNsybN68UMb/vN5VmJGfOnAkvv/yyqRCoOag3tDnaBSoEqhLtAkYwnVsEkgpLu1JAQqP/xz/+YSPp6dOnw03RbRr8unXrwic+8Qlr4NglGKlL2RiNKRu6+i9/+UvrONBWztNxsQV873vfMxCY6H6FNhKAhBGQjg4r4T6Uj3KWs+Xf/69//Wvg/nTsJUuWGHuAITz22GP2rFLuz4gNGAEkr7zySkCWqDLYKD796U9bB0Su2FBQbXheh1jeNoEiKhTACIiUyvwKyzQRkDAg0PFhO6XaSC5dumR1yPu8+eabxkoYEGgLH/7wh40VwrKwyU3nFoGkwtKuFJBg0KTh02Aw2DKS0uC9wdChHhK9h4KXsmF8vHz5sjW+5557LjCaAQA0QtQbAOA73/lO2LNnz4S3y+/oGFsBPDqZ68/c5+tf/7qpBRPeaJwv8zveO++8E+g4qB6A1Ec+8pFJdxTqA9nBcFBdsIUATMgRwzKdGLmiPv73v/8NlyQj3of3ePbZZ8MOqTcYHMezDYzzGrnT+e+Tb2yF8QBkAAnvhjGzlI0BBZnzPhjjAUZkTzvAgL9z567wsY89YYb9Uu5Xqd9EIKmUJLP3qRSQ+MjDqEOj4ZjGzEgDgDBSfvCDH7QOMZEnwVUaKDCdCEby6quvmvcAIKEToU7Qcb797W9bw55IJMWABCMoG/dBZcDLQQeZjFcJsMBmAzPAyHzgwAGj7XhPYBB0vE996lPGxOj8pXY8vy82BWwlqHS8Mx4I1AGYFDKCuQDY/XqHJVINAGoYA7KeyoaXhjpE7gAjx7BAOj2qE3Yl3o1ylLI5MHJPvG9Hjx61AQEVd9as2Sb/p576hLE3ZATITMcWgaTCUq4UkOSPPFB8dGNGSjotjQajI0ZX7BITuSVptDAOGMhLL72Uc0FyjuvoRPwGIMFYRweaaBsPSAAz7kMnB+DoINgfSqXY3kHo8H/84x+tg3BP+6icuA95X94b/R+WUMoGaPCOgOhzz/3RbAu3bt20d18kwECeIwIx1DvAGhWDsvNxtaOU54z3G1ggAAKzZEAASNiQE/dH3hh1Ud1K2XLAqHsSXgDgChkTOUle2JGwUSGnyTDWUp490W8ikEwknTK+qxSQcB9GSUYeKLmPPHR+GhM6PiM0jZDRDHDJBxRvcLfVQa6oMdORXnvtNaPwdC6+Z6T3D0DyzW9+s2wg8XIxCqI2wExQkxh56fjuSchnT5QD8PF3hbLDGDAm4vIGLLgfnWynGNgzcsPirs1/z1KrCCD+979fMmZw4sRx83RQLrwbAI0beVEznnrqKQMSyl6ukdXLhVpF3VGPGH1RWXkvVJF1siNRf9h8kBllQT7IhT3vOd67WjyJBhiYziWBE8yN6/DkYRzGTgKYEDPDezII+f29bL7nOmRAm6A+kAUbIOsqK+WYaItAMpF0yviuUkBCB8ejwgj9K3kT0K8Zeah0PhhZaSR0LECAkcg7K8WmHDRiGu4hGRvppAAKDcUNe4zCPINnTRVIULsoFw2O/3H/wpYYFaHu7klwJsFvee6tW7fMYIhKw7u6YZmOQdkYuT/y0Y+GPRq9PdAtH4xKrSJAGTCFGbhq552EstCRKA/yrISR1cvFe8B0CFAkMA4AoGP7h+d97GMfs+dSL3R2yoEc6fzIqxiYEPSIzACof/7znzmAog1wHfJmsEF940N98EyXv5fP6wG1EgChPigvMgZUUQEZpAqv8+t9H4HEJVGhfaWAxBs3o9nzGnnoZAAB96ej0uDoCO52BUiocM6zobpcvXrVGhj3uCtj6xw11GR06lKj6bcGg6oCuLhqA6WfaCum2tBweTbsgXLzG8pIY2akpSFTTsCPhs42rI47pMZLh4AtEICHjYJjGjHX03i5FobAyO1gNFH5xvvOI12RI94ZOrSPspQZufEePMcC3gSCDjTj3bOU88506PB4y/Ag8V68H+/pKg4sYo7k06rzXAMboCPDNimX16s/0++L2xqjK/elbXAeZsH1MDmXP8+BXbn8/T4AqLMQ2gyDD2yQZwLc68SaUE+p34m2QiAhgJC2RrtCJUU1LWcAmOiZlfquriNbERINHCMpevAbaoivyovDaEEl0xjpCOw5puHwoYFyHSMMnYcRkQ+NAd0ZSn337j3p6hes43J/fovxFq8NevtEWyGQnMy6fxnxYB9tbe3GMK5fv2bPpzx0BoLJABpvyK563RUrovE6O6IsjMiUk04NPceOUMi4Jipjse+4J50M1ckZHrYRysGHRk9no+EDXIzmxZhAsXtPdM47Kh3+97//vdlLqA86L7KhzpALbITOypyPXtUbwPtRMTFURGTB7/I3vy82GNgqdhhAEhsM78O9kTXXcW+eYUCitpK/cZ/hrGxoL9QvrIT28qEPfcjkAZg/yBicDyQ8E3nO1jOpP6Y0YC+rhDzzy16p/2sWSOgYCJYRyOfaLFiQzPHYtWunWesZgUrZfCSlsUBhGUm9s3ljooMAHjQcBxKO/RxMgE6O+5TGBAOApdCpcE+iQgAk3/3udyft/gVIGLkZ+bCJ0OgBhYsXL1lZARTK6Q27JcuYvOy8y4Cez2hFA+zsBBA7TW0D+ND1uXep8TIPkqkHntHpGIF9BKfj0OiRA+8BqFRyQ8XE9kOHR2YwL+vE6vSAHO+PHDlHuWACn/vc53IGX1dHC8vk7QM1B/UJZgcYcD6/ncBoZglQGHjGbGonXhfIAoDjA3ADZKUazTEk//CHPzQwY2CDkcyZPSds37E9fF7vASDSBpwFjinDDB/UJJC4SoFg891zPT3zrXHSUJ9++imzG5QiPx9JYSLQV+wddAaOB1XxNBYqnsZAJVFZfGiUdMwVosfEQtAhaZzcD4bDB3CCxlJmRuJygKRw0h4NhtGUURd7BIAFWNG4GSlH1HBtyzZgOhDlpayABQ34oYc2S6XZYIZaOjjfva8DlCK8Ir+hw/3l+efDfhkpYWOUk3Ihm3IC/Yo8ougpngNboA7/85//GMgy8qOOUH+APvXHnmMYEe5nQG2iOBNvH3j5qEtAimcwWGAX4rk+0AAmTXrGmC1bH14PyJnJkavUbng2rJCyYCuZaKOuf/KTn9jgZEwIVVdAsm3bVouXYSCLQDKRBAu+YySgkwMkf/jDH3KzTufN6ykLSPz2PvLQUJhYRgAVFBg2QcOjM7A5iEAtYR+r5XkASNwDwX1gSTAb7oUdhcYMff3iF79ogOPPLLYvVG0KgQQ1BN2ahgng0XG9UfNs7zTcm9/QcAEKRlw8DitXrsqykJVWfka3Sm10UoCNQDqzOQlIkF9ra5uo9xZjAHScfBWsUs+mfgB96o22cezYccme2bt3DNwZCPI3WBiMAJUAWwf1OdGGXBkQACuMyhjXUXsAGM7zbN6/cKMOADAfeFCveBaqKm0Cgz7sbDxG5Pejnp8XQJ9Qm6JOO9oTtWrdurU5rxTP4Xm1ttUkI6FhMDLQWP70pz8Z1QSh589fYJUyWdXGhe4jD50RWkwDYUTj2Ok5v2XUoWPSGdBr6ZyM9DQQKpj7cB2AwIeORCPnN6hb/H6irVQg4X7Igt/zPD4cA1r5oIdsKBsNlWsoNx9nIQBjJTY6EZ0VJsakRYDEQQQ57RAFx52e2HkS+1Mlnuv38Ofz/tQdbAEQhzFQJ97J6WzUIfVAJ3b7CHU30ca7IVfeyeXubSRf7oWAxbMKQYS68A91A5jzu4k2ngHz5H14h+bmhBnPnj0rZ6ytRRDhnWoSSKg8D2EmQhN3Jo0AjwONFNUGIxZ0tZzNG6Q3GEabfEZChZuOqgZQbGT162l0NGBvWM5kHtRxSwUS3peN5zAa0oGcZucDCY3YqLDAz8GuHLk86BrAFjADQDB6Qv8pByCS1Mtu2ZA+bPaYB92rEt9Tf5QHuVAHhUBCHcIMkE05I7kzFNoHgw3P4329vv0dHEh43lTqwdtV4f0TUKlNJuIyqEkgYaShkaIzMlcGKgsSo/ujczr1LzWS0V82f0+l0SgAAm8c3hB5FmDABwCjIgs3fpv/4XuuK6XBThZIeA6Ny8ub32n8mTzXy1ysvIXlL+c4P44EGwXqFvJD5XtSs4kxKhLv8iBGVs6zi12DPPIHgPz68zqkk5dSJ8Xu7zJ3ubP3Z+T/3usA+U+1HrxNFd6fZ9TyVpNAgo6KWuNzK7CXUKmoDfnT0qerwVa6AicLJJV+/mTvB1jARmCJBKLhqeJ/qDidByM03hGMzdiUGJnj1lgSqEkgoZH+4x//FIV+20Y97Bk0ZCIYCcxh5EPvhcancUsbkEDr8c4AIARuYWwFXAAM6gHjKhnQqB8YHOASt8aSQE0BCTQVfReL+Qsv/J95LG7fvmW66cjIqFnfn302ybVaTVtAtZtAWoDEmQiMEO8RthHiLDjGLoOLuhKJmKot73j/6kugpoDEOxgN9u9//7vRZ3RGGi0W8O3bd1joNW5G10erL6LKP8HfE/Wtmsmfp1pyZyJ4aagPmAgGRwCGesG1ST4QbFaluFenWp54fe1KYEaABHsH7IMGiQELtQUmgs8eXzqGVqIXce1hvII+b9y4SQ12l8UF4NJL81arQOL1Alg4iGBQBUh8kh5eCUA9cffuMHcvAXSAfVRp0twqp1b2GQESgANDHa5MGizeADwzp0+fEQu5H+DF7wAbjKzPPPOM2UYqGeo9NdGVf3WtAonXC8ZuAN0D7gB46gs3KL/Be/b4449b6DmGVtzU5XpGypdivLKWJDAjQOKBNwTf+IfGywf9m8aK/5+AKj40VoCEfZptI17x+UDCLFoiW3FTApLk1XD3tseR+HXV3KOqEL9DzA4qDDYRykWdAPb5sRLEjDz99NMWfTvROi3VLG+8d21JYEaABJWFOSp4AbCHuHuXoCsaLaObhaZLhcEjQIgzjZc5I2m2jXjVO5AwKZHIXUZ+3guVjUA7vFKeN8SvqeYeEEGtAURefvkVU2XOnTtr0b+AOvUCMyTkm0mABARiZOU4qjTVrJn03HtGgASqDIhgbCSwCdciDAR3IiMf0aTYRQhuYnRGtamn+AQYGaocAXdE7p7U3ArAE5WBjko8BuAJcE7H5kACoL344t+sXNhG+vp6xQBhhknEJvXB7GdXZ6izuEUJIIEZARLiQqDNGPHIOn5VNpK5Ag9oMqMcbkXC36H2nKPB1lN8ArYhVDrc3Lz/+fMXLCp28eJFNtJjvCxltmglmzBgwjR9jKowJZhib2+f1QMAAnhs2LDe1C8MrRhdAf24RQkggRkBEvcInNaoh4fmjialkedhgRooIAKY4E6EmdSjEQ8PFflWAJPjx0+YCkFlzJ07xzouM0VLmS3KNZXcXOUE4PngWVu7dp2plUxlp0z1YKOqpMzivRIJzAiQoG+jewMotwQiLO+Irs0o5xOfXM2p9TkG5TQkXN7YHXCzwk7osGyM8G5g9vcv5/7lXkN9oHaiauJJw24DsKNmMquYMtWDjapc+cTrxpfAjACJF8d1c45LYx7KBSEKbptNYqrtiUxJQdPzF0BzFy9AhzpZT7ap9NRE+tr5jAIJFQuYsJXEPEY1VXw4k/y+Rfp50/tn5dqX8U9ZEsBzA1tiz4c6qSfbVFlCmYmLUtjOZxxIJlNPo4PKB3Hvpl3S3D03NLdrlmlkJpMRYfxtDUtgNKN0nwP3NFgOhyYNlE3KOtfU1qHxsvYnQaYKSIbvXAsD546IxoyE9mUbQsucBSbwyExquHfEopUsAQbJoUsnw4gApbVnSWiZ1ROaO7oNUEq+yQz9MFVAkrl9VUDyXhjp1ZovXVp/Zu6i0LpwVWjumjtD4ouPjRKYugRQ10eHNB3kulYjOLXf7IAda7aH1gUrBCRdyWA59cdU9Q6pApKRgd6QuXUlDF04EgaOvWZoPWvP50Lb8qktUl1VCcebRwk8QAIj/feSdn3xeBg4/kZo0nIis3Y9HdqWbUzUmhrPjsbrpQpIQO6RAa2EdurtcO+V/w2jmYHQvftToWPt7tAyb0lo7oyRlg9os/HrGpJAjonc0LIopw+GoatnxLZviIksC907PxHalqyrodJOXJRUAQmu39ERxWCcORDuvvrrMHTlpOmR7au3SfBC8KXrJ37b+G2UQA1JwJnI4Ml3Q+8b/yf1pj90bN4bOtZtD+0rtIaNbIBp2dIFJFmpDl0+GXr3vxgGTr4dhq+dERtZHLofeSZ0rNkVmmU3ae6cnRpKmJaGEstZOQm4dyZz42IYkvNg4ISW9Tj8mgbFeWH2E/8vdGzaKxCZn3glK/fYqt4plUAyfOd6GDyvCji+L/S982JCBxevE5LvCp1bnxAz2ZgaI1VVazfevCYl4N6ZgdPvhoHDr4bMtbNBgTuhbdXDYc7jXwvta3cmrt8UuH1dwKkEkhHiSe4oIbSA5N4rv5Dx9bDiy7VM4pL1BiTta3aYxbtl1vzED0/wWtyiBGZYAh4HhS0E9Xzg5P4wdPJN2frk7pXDoHPzY2HW7mdkZN0wwyWd/ONTCSTYSRD+4On94e5LvwwDp98KYfCeoXjznMWhbcUWVcpHbN8qtScaYSffMOIVlZcAqkz/ibes3Q6eO2Bq+YhiR1rmLdMA+GTofOgDoUP2PlT1tG2pBBIX8tCl4+HeWy/IFfx6yFw5FkZ7FfWqsPmWBStDx4bHAswEF1przzLFmshu0trul8Z9lED1JZB1DhCtOnL3Rhi6eCz0HflvSEDkVBjtv61JZmLSK7eGWR/4cuhY/2hI68CXaiAh0nVQxqr+4/8N/e+8IF3ztIJ3FFbcriCezjmhddHa0L5+T2hfvT10LN+UKit49Vt5fEK1JeDhCkNXToWBo6+FwbMJCxm+czWMikEz6DV1zJVtb3eY/aGv2sBnIfEpVMVTDSQ5W8nJN8K9134Ths4ftPB5xRjb5L7mWQtC64qtoX3VNqOMbYvXyDIuuwlhxxiyUhDoU+3GHu9feQlYfMigFnqX2pK5cUGD3eEwcOQ/IXP5uOKg7oSg+CdCGZq754eWxevFnvfKNkL4QvpsIy69VANJzlZy7lC49/pzYfDkW6KQV4T2vQlIwE7aOkPznEWhbdE6AcpWq7TWRaujV8dbQNxXXAIjfXfCkMLdh86/J9fu61JpjoYRsRBUHEuDMTosL82wpnesDZ3bPi6VZm9oX0ncyMKKl2W6bphqIHEhYQXvO/SKvDiqtHPvWKUF6CE6ambQbCPNsxaGVrmFO4X+bQT7KBK2ZbZ89R2zzEjr94r7KIFJSyBrCxnVFI7h3lthGBaiyXdDGuAGz7wVhm9eTJgyNyb1BTN7WzoEHg+H7j2fl0qzK3VxI4UyqgsgofKGrpwxIOl7689GIQ1IghIfaaawas9UmSYFqjUL9c12snqnogc3i06us+jYQsHE4yiBUiXgthDiQQbEioekygxdOxVGbl8Oo5YWIMmAl7AR5XnpmBNa5q9UvMjuRKWR69dSBqQobqRQNnUBJLCOkb67cgO/E3pf/51GgXfDCMYskiBZ8iMlTxKVtE3H5iJe/rCs5ZtDh8DEZll2z1MFJ+wkDfkfCisyHk+nBJIMZqNDancCCmwhw7cuS4XRpDuA5NIxsWKBiELeAQjRD8ayRK1RO8Td27Z2j9TsPaFr4x61v+XTWfiqPKsugATWwahA6HzfwX+JmbyhSj0cRu7dMLVGeRyTSnQRQi3busREFtjIwOzhjjU7Q+vitamnmP6KcV9FCWTbm0VYo8JcPBKGzr5rcSGACja60WGxEKk8NpAZiFCeJBtg27KHQtcjnzV3b9v85RaaUMXSTsut6wNIsqIaJl/J2UMW8dp/6J/K73BG9ShbCUDiG5UrYxcBbUHGWCznrQvXmIu4nZgT5Tdpmbswma+jDGxkqkpYjd8g7htVAu6NwZg6rLiQzPVzYfDCURlVj4TMJeXJuXstEQ3eQPMKZttdts2F1g61tx6ziZD+Am9iWvKNPKjO6wpILARZFWxpBqTiYOxKRgbZSfJdvVax2XN4dqjgtm5RzqUKVZbdRDEnBirzYyDbgxpQI32f88YoEHJI6jOzz4dvXdJcr1samOTSVdhBbrP2BhXRZpHYg+Y9bF+921Sazoc+KE/iKo1R9RGGUFdA4ioOo0TvW3+VO/hN+fHPyuB1V0AyToUBKlS09F0zgimIjTwQbcs3hLaFq+97d5hRHBlK0jEa5G+OgSjx0Ejf7TB8W0m1ZNQfunBMn0PyxlyQjURtS+3HoqbfZyyF/SbqjBqgVGfNBdv+VOhc/0jdGfnrC0jQQVVxpGQk4hV3cP/BvyniVSoO4fHvq+hsjzAwEUPR9xZZCGAoOrZl7pLQumSThdlHhtIg6JH3mvcZyAnZQA6EzNVTYiBXDFQwpI4ODxqImO0Do34+6+U+eAwBGcUyNXUvkEqzM8x69NMWz1RvYQd1BiRJK/CI18HTyqT2xnNScQ6aBZ1KTYxfWcqZ12js32zFG0OhASgXbMsCMRSlKGBGZpvZT5TvRNGxNneHUHwyfY8HUIX3j8c1LQHPEzLSf1fzYO5mGchZ88YYA7lxPvBdAg7ZgakQPPLfkPYkJ0Dz7IXyEGqaBl6arY9LpVmd/6u6+L8ugcQjXs2L854C1U68ETIKn7/vxZGaU3TLUlGjo/pfhlrsJzai4OVRg2hdtEaBbesFLJvktlsZvTxF5ZjOk54nZFCT6zIX3jNj6ohy34z037GBKGEgsoOgrWDAnxBEaEsJIyE/TtcjnzMgaVu4UgbX+ktWXpdA4s0Y99yA7CUASf/Bv4dhUVN0VfPp5xvD/ILCfT5DyYihKM6kpWe5gYnNKgZI5i20gLamTq2zo5yxueUDSrl/4fPi8bRIwAcajPMEjJFUnD1qy+DlU4oDOS4vzFEzpI5qzgyA0NRWAgPx0puqjN1ERnxFTxO52o2XRrN868VL46/q+7oGklygmizsvfv+qEC1d8Jonyzs6LaoIxas5qIots9jKDQOGWxNlWmVzoveq8l/zd2zk1gUTQ5k0lXbYrmPtR5JdBsXk2dtnHPVl9D1oSunE++L4kEwpo5mesOI7B/BbCAKEVDmMtsexEDyX00LXLG8BINO5+aPhg4FnbWzvITSWdSLlyb/dfm/roHEX5bGkgSq7ZPP/5BUHPn7SwISv0N2X8BQoLaMVM1EKhIpi8oj6srkKwMZMZSmDoXlszYJK6ZZTAr2mXFsNAWPi4dTk0COeahT07EtUAzmwXyY29fk0QNIziRGVDGREQ0yoUV1qsXT70ekTqKu8o32Gmzalm9RLuFPWerEtOYZKbUGGgJIMJBlbl6SirNPzOQPti5Oot+i5kyioWS9QsmcCRRlbRqp8AgZYIilhBYBC0bauYtDi4yzsJRWgUsry2WQXCkGuCVym4a/OeahmbeoLQQoZhS+Pqw5MGRwR20xgIF9oOaYMZ4mQbt4gA2kWPmzTMTTV3TIzdu15UNiqWvvDyTFrquDcw0BJOi4xAQMalp3777nNB/iTWtMSbqBceJLSq1cRiGYSpatjGJLIXWBDLMt81fIfbw+AZL5S6XyaD6PjLa4lpvblRMFlsJcDIAoen9Klfj930n2xjqYU6UPqqy5ZQEFgUMS+yHmoXAA5sJkrp9VJj3lBCGxUDaE3VQN2Gk5DNVLkmsDnGiWDU2JyLc9oRD4RxomoVZjAEmWSdjcCFnkiS/pI6PaVWVUmyi+xBvKg/Y0pHy2otHMGigAgYsY4MCeoqxtTV3zLMiNsHwiaQGXZtlU0rb8wINEMh3fMziwYJqlMtSkTTwsME8CxSxY7O51C0YcMeaRgIuxEGxkVmeUMstKp2IcF5OxdBV49uYus3iRbiUqIk1Ao6T4bBAgSZr1GOOr4ktslrAiFgPzbiZjTHtQL8m3pUCXtRmwqKEBJsw+blmwOrdQNHlRmN9DmgNLFQkAYczNMhXLX5EdNevVWDdWpLA82EbiPjWVg86aYx33bR7DmvdC4BjrQZN6c/jGZbGPi/Yxm0cuaIxKcJWlDLVlbAGzR0k5rawqLwGM7Wt2K+fNHkvkTHhAo2wNBSSoHzRGjGy2poiWsxg48oqNXqgZQUa2ymz3G5gxFbupGrGBAUltNBHQ5vjInqIoWlNzZJQlzyz2FXKmGFtRZjdjLBhtjdnotylZVHpKcszWkwG/uWjFOsQqRnoFGJrRjXdlGOahSXKjivEgTJ2kQqbWaFAwtQU1h7kvzhZzBcoykNzxFP7xAYO6bJ9t7t3uR7WErJKOt8xeYHU2hbun6tLGApJs1eSWStQCRX37X5AnRykHLH9JhZlJsaZAw/bZx2qIxjDUEDHSmgpEPArpDTDOiqW0KE9Kc5cAhqRMxKkAKoAermgHJO1hMglzYbRF55f3wdzb2Y6DUdhGZB1X3WuUZRTWiV3o2JF0XirgqHVA/U9uXev45NiV7GEc2ttHk+AwgKK2jPbLJevzXTQpcwTmYZPlbib1hrFUwMFAYfJ0e0c5BtNidfa+c8n7+WlmkLct2aiAs0dD1/aPp2rNXn+Hqe4bEkiMIssdmFFezQGtjTNw/M0wqEz0w7cvJZ20YsxknOoxMCE+gY5FR89SbWwr/J8DBmYm64PxFsZC4iV9EgYj2wv/O9DAZAxkiHHBiJsFF3UqAMfuY/edhrQI6tAmYwCDTSqKA4ZNPwAsMgINUhPeu2VGUVNPpKIQ52MelSF5VMjrYXv+z4IFKo4BkBiHgMdm3PKcLEgl8syCpdk9kiJU9C/PQ2VFtubm3Ry6d8kmsnZXaCW/iEC/0baGBBKvZJ+UNXhqv4yvf7MENaMZRTJCib1z+4+rvXdwyTZS80ZY51BRAAC8PWY3yQbDcQxDUbi1MRaxFotd4TcAieJbzJAM0yHWxcAlG8tiI3aWqRg7oePpOTkbgr+s/8aPtbdyMiILHLLlu/9tcj5hFgKKrGphDEOzq2ENFgwIC9FnREyDmA5UFua2WCg64eiwkAzAIVYC05Cdg9+/n3Ek5b4PHvdLUp3/CpiIDOdMmWA5ia7tT5qr31gibafBtoYGEhs1pXuTPLr/mOwlpMk7u98S1JhbdrzUA9VqJNYxvbGiAiQPsg5uxmCNgAZwCYNJ1CKBjIBhVOcTVUZ7ZyCEdftcIdzN/K/vmENkoynMC1DJqjp2P/NiZTuC39M7hoGHRmOYgNkgEkNyThyobAKMYOqJqyuoKgICAsIAB+35PgzDWhJ2oX8MJAycMLByDIsBVO2TBagcgwNAADl/cu4fP1GdPWUZw0SU6WznU8Gy61mmszkqU7Zs1SlBzd61oYHEa8Una6Hm9L/3siWPthgTOox14BoYYRxkKDT/ewezY3U6KD/nR0YNUJpaBRBuezHvj4Ll2AOOWQCx/w2Yko6YAEk2xyj3Vaewc7kem8RtGGODVdCp8jfKYCAhEAEMTPXIAokxC5iIQIXrVE7bzJaTfY4xpQQkky9VrmqpJ/nlfuD/yJvyJuVphokoVw2L1jc6E3HRRSCRJIxmi05bJnoFqw2cfDvLTK5qBJ/EZC2XatX22c5nu+z/PCsLMrbTocFCTk2h8WfZioOGfafz3CJ7Lbcx4DD2YXfwG/GFfZ29wK5J2EJeGbK/SH6r87kyOatgn5wvVIkSrKCcPIe93yz3j5+Ymb0zEQFzszLAW87V7U9Yek6ziUitzJV9Zko440+NQJJXBTlmokl+uIUzV05YQJPp594J836fin/zgaKwwNaxsx288LtyjvPBq+j1gESNgEPR8hWedEBMGBN5aFoXrQ/t63aGrof/R94Zhb6jKhr4Fl7bWMcRSPLq25lJ5vp5rdOqxY2k6gxqOVC8OdZY0gomRj3yXtT/NUJhf/xMBfaAxXi3GfeL8S6Y2fNZJmK2pa4eTcLbbImJSNrc2rPUolYbnYl4BUUgcUnk7XPeHCWPHsBmQm4KBUIR8JTbnIbnTsR/6kYCztRkswFEWhQYSL7VdgWadW7WJDxlOItMZGxtRyAZKw87cm9ORjNGhy6dMGYycFSqjnK/mpGTX7lhsMj18VTKJYDRWEZhpiyQapM1o7seesyy4rXMWWDzpiITGVvHEUjGymPMkU9DH7r4Xug//JLlMiE0m3gHIYo+0Ph8L8OYy+NB2iRgqoxsRqTY1CRLZm+3r9xmk/A61+9WsNmytL3RtJU3AskEojaXKoFTlgjnsk3ys8A15fO0kHrFOlRk9vAEZYhfTZMEUGfkrh4d1PozsxdpSc1doWPtDnlmtpkqY1nvNC8qbsUlEIGkuFzGntVIhbqDmtN34O9Sdd7RdHWtaWLLM8puQsxErcSbjC15PJpQAgIP82olPyLcvbl9ruWQ6di0NwGRuMj8hBL0LyOQuCQm3CcNjjkgtkjS5ZNh4MwBMZSDIaOV50d6tcZwu+JNzBWYMs/EhO9d5196fAivKZtXqxZH69z8eBIf4ku3Mr+J5FNxm1ACEUgmFE/xL8n3OSAAIZ/J4Im3tXj0aak6mso+rPBvH+Gi7aS48GrhLHVEKD5eGc1BYq4SeXbbVjwcOrcq0ExLjTRKQqJKVUcEkjIkyXwSXMQZ0vcpafCgVmEbOP4f8+rYJDPdM9pOyhDsdFxiICKvTN4Sre0rt4TOjSyjuVHJibQAmiWYioFmk6mOCCSTkVbBb+97dbQ8qCJhBy8cUZauqwYygUWlsZ2YZwfvDipPVHsKRDg9h4AHagzyt9gQZkSzaLyy/6/YIq/Mdq3HG70yU6mMCCRTkJ57dcjSNaz8oENiJwOnpO5oyYvM5WNhFNsJ8Sb+iaHUU5B2mZcaiBAXQtKqFsvr0jJ/pWJDdmgZzc2WhIgo1eiVKVO+2csikExNfmOuJoBtQAbYQa01PHTugPKHnrc8G5YCkFmxNOpoOxkjs6oc5BiI7g4TJC7EbCEk3l4q8Nig+TK7k6VC5i22hFBVKUcD3TQCSQUrm1wbw56EmFXctPTj4OkDmlV8QukBL1uI/YzkOangO9b8rfIZiAqLrarZQtw3aq7MptCuD+sMsY4zRlZLAoW3LW5TkkAEkimJr/jFGFxHtDzC0LWzApJ3bUGujDw7w3e1noqlDMwm93G9nVEz2lCKC7OUs4BH/sREWF+zpvyTQU5JmFuVsR9bCAu/txMXojD3OFemFMGW/psIJKXLqvRfZgPYbM0VomKZs6MsbDAUEk2zUBOxJxhkow2ldLEW/aWrMQbK+oVAxNYO6tHqhovXyRYiO4jSIdrKh6whRFwImeMicBcVZ7knI5CUK7lJXOdZ6zNX5CrWjOLM5RNyHV/MRsb25qUtZGT1zVmKH8d9TgIOHpwAEEg4xMLulgxbGfe1vgyr3WELaVshVYaM/I2wjEdOQNP/TwSSaZC5zSYmZ6myphN/YtGxynkydOmkJZw2o2zfzftpCkzVYTJgnBD4vuopZgNh+Y6FaxMGskxLpC5YYevKJBn2lX2fhNh4zoyFvO+O8UQFJBCBpAJCnOwtcgwFdUcTADNXZD9R8qSRXq3TwkJPLDFJHApZ2HNblqE0EiUvtH1YHIhUF9k/yD9rNhAtx0E8CPlCWGfZbCBawD0ykFzDmZZ/IpBMi5jHPiTHUFg9DoaiGJThmyxyLZYi9Ye8J8M3ztoaL55gueFsKa6+YPswQJEM5V1hWQ6WPAU42pagvrCGslQXW9eHhcSSBcQiAxnb5qp9VNdAQpLhEc2pyGgxpqGhoTCs5Q845sN3noSY5R6aNXu3RdnV+bRqcam2tjb7v9oVwP09QnYYl7HYiXl48PIQJesMxZZxYF0YsrcTpelM3W0pvrevUvKHiNPsR14Xx4uEdClPanb1QVNNbJEweWEAjJ7lFs7eunhtaFu8Kgkmi7lTZ7TO6xpIAI5B5Ze4d+9euHXrVujt7Q0DAwMGKoALgMIGeHR2dtqnq6srzJ49O8ybN8+Op6N2chGyts7tPVum0plK5sYlYyrDYikZBbgRj8IylmwAYI6pmD0lZTYV2IYtTaHIU7KSZZGkSaDOEqRJ/McG2TwEFmIdrQoeY7H15lk9FqFqC4IpAVESmyMgjVMQrF3MxJ+6AhKAAfCAfQAYfX19ob+/P9y9ezfcvn27ZCCZNWuWAUl3d3fo6OgI7UoRwB6mMi2bu48Vi2ITA7W0aOYqKs85AQm2lFsyzLLgFGvGyI4CS2G9mNyaMlnvD31Lm43wdLLkn+SkHWf/rVgHzD7Xdtn/eYQBRJZx5J0GBA0EBBoW18G6O7YqoIyjWjS9Be+LJtIRB9ICiLCo+pz5tvC6lzzua0MCdQUkAAisA/Zx+fLlcPPmTWMjgIqrNL6fSLWBoaDqACgLFy4MixYtCosXL7bj6ak29TZ1PreljGB8dRVHq9WNKHo2c/NKyNy+KiMtC2qLpdxSoqW71+RSVjoDgUoQOTF8yF+ACtbCBqCM8QgVgkzys0n9zYKFXcP/+bYNgBHGwaJYw3ynX6koNn1fagph67CPlnn6sHD67PlaPJ21jFmGVDYPVgm0ZUhZ01iggwcmbjUlgboAknwV5vr16+HatWvhypUrxkJgJHwPMPApZXOwQd1xIFm6dGmYP39+gKVgP7FlNEu5WRV+416f4VtXs2AilmJqj4CEdXRRkTTz2Owp5EhBfWCjc5NOMNvJbY9niO8BLjo4W+6f5HDcvwZI4JKACNlqFb+m7HKggFWidrGkaHOS4Zbvm+RxYe6LVgLEPUte1JaeZYr9QG1RtnbABNWlS25bMZS4pUMCdQEkqDAACOBx/vx5YyT5xlWqYrIdH8YC8AAa2E3mzJkTlixZElavXh16etTQ9d1k71mpJuFMhZwattC2lsmwiYFmkJXtR0AyokW5WfALxoIqxDljNSzQDbsZEssZVFzLoOwt/C82x1q8AbNRqUAithNaBBhS+WyRc5hDuxgEgWEwCT6EqcuO0dypj+a2NHeLbQgkzD0r9aVJeVCTxdFZ+Dz7gXVE42mlmsu03CfVQOJMBFUGALl06ZKBCcDiDITOXm6Hd/UHVQdAgZ2sXbvW1BwMsthNyr13NWvX5/oAJBmxFlShEYGGAYgABgAZHQBIZNgFSFCdckCC6pH95M9fGVPgrCqUAxJ1fEBBOT4MPAASkgPhirX/E2BplrqSsA0BSow0HSPRtB+kGkiciQAgZ8+eNZsI3hgAwDu478utKL8X90HVgY3ATNasWWOqzkwyk3HfCZsEKgzGWIyyGGONbSRqjBloSbqE3QJjrf2fuMQNO7LXmypU7CGyrxhjMHUGtofBI8m7kqg2YigwCs5pz7kmgTGh7GbjYM93qERxqwsJpBJI6NzYMTCmnjlzJly4cCHHRPCs0LkruRVjJuvXrzdAwSCLV6euNgcibClFNoAjqh5FBNPAp1IJJK7SwEQOHTpkHpp8JjJVFlKsPeQzEwyuqDnLli0zm8ncuXOLXZLic4lqwzsX20y+xiYioygmn0Y8l0ogwRNz48YNs4scPXrUmEk1mEhhg3BmwrMAE4Bk8+bN5h6uSRWn8AXicZRAlSSQSiABRE6cOGFAwv8ACwbRajCRQrk7MwE4sJVs3bo14BpGvaEMcYsSaEQJpApI6MTYRlBpDhw4EC5e1NwUeRs4B4hMB5DQSJyZEFeyadOmsHz58oB6gxcnblECjSiBVAGJ20Ywru7fv98MrA4g0wUiNBIHEgytsBGAZOXKlRZr0oiNKL5zlECqgIQJeMybIWbk4MGDFoQ2HbaRwmbiQII6Q6AaQAIzwQAbtyiBRpRAqoCEeTRXr141d++pU6csgnW6bCOFjQMwwU7C8wGSnTt3Gjsp/F08jhJoBAmkCkju3LljbATVBvsI6QFctZmJygJMULfw3uzZsyesWLFi2uw0M/G+8ZlRAuNJIFVAQij86dOnjZHATIhsnUkgwchL/Ap2EoAEO0l0A4/X1OL5epZAqoAEV+/x48eNjfA/6QFmEkhgI3iNAJJHH33UgGQmbDb13EDju6VDAqkCEmb4EoCGakOiIoyvtQAk5CrZvXu3AQku4BhPko7GH0tZOQmkCkjIM3LkyBEDEuwlsIFaARKMrag2TOyDlcQtSqCRJBCBZAq17aoNjCQCyRQEGS9NvQRSBSTYRY4dO2aMBMNrrdhICJV31SaGyqe+T8QXKEMCqQKSWvPaOCPB/bt3797otSmjAcZL6kMCqQIS7CIYWolsZU+U60wGpHmEqwMJgWlxixJoRAmkCkg8svXcuXPh5MmT5rmZCXerAwgxI6RgBEB27NgRI1sbsQfFdzYJpApIsIl4dKvPtaEjT7e71YEEewizfn2uzYIFC2KzihJoSAmkCkiIJMXli2qzb98+y4w2k0BCAmjC4vkQlMZx3KIEGlECqQISryDykZBGgPk2vvQm8STTscFGPHaFfCQbN260uTbMAo75SKajBuIzalECqQQSolrzkz5jO/HOXU0hu0qDKgUTgoVs2bLFMqVxjM0kblECjSiBVAIJqRVxBcNISLlINnnv5NVkJv4MmAeLjGMbgZHATOIWJdDIEkglkHj8Buv7Hj582Gwl2E44X01m4kCCgZV1bQAS1gUmEXTcogQaWQKpBBKvMJgICY5gJp4E2jt7pZgJ9/MNVzNshExo69atsxX3fC1g/03cRwk0ogRSDSSwEJIbwUxQcchRUklm4qDkDQOvDMFn2EYIi8fAir0k2kZcQnHfqBJINZB4pTkzwZuDIZaER6g5uIt9K5Wh5DMQV5OciWALWbVqlakz0Uvjko37KAGtvqqOc5+7p1QizkzIV0LUK+kGCFwjX4lvDgp+XGxfyEDcO4NNBAaCSkPQGdnjo5emmATjuUaVQF0AiVcec2+Yg4OKA0tB7QFkiDUpZCh+Tf7ewcYBhNwigAZMBCDBUxNtIvkSi/9HCSQSqCsgATBwDQMgqDi4iNnzKWQoxRqAAwjg0dPTYwACiLga41G00SZSTHrxXCNLoK6AxCsSFkKQGgwlH0iYq+Pqi++5BiYCOGALYf6MAwlgAguBmcQtSiBKYHwJ1CWQYGRFlYGhACqF6o1/58ZYmAgA4jOJ2cM+/MP3cYsSiBIYXwJ1CSTjvW4hwDiQABwx1+p4UovnowQeLIGGApIHiyP+IkogSqAcCUQgKUdq8ZoogSiBMRKIQDJGHPEgSiBKoBwJRCApR2rxmiiBKIExEohAMkYc8SBKIEqgHAlEIClHavGaKIEogTESiEAyRhzxIEogSqAcCUQgKUdq8ZoogSiBMRKIQDJGHPEgSiBKoBwJRCApR2rxmiiBKIExEohAMkYc8SBKIEqgHAlEIClHavGaKIEogTESiEAyRhzxIEogSqAcCUQgKUdq8ZoogSiBMRKIQDJGHPEgSiBKoBwJRCApR2rxmiiBKIExEohAMkYc8SBKIEqgHAlEIClHavGaKIEogTES+P8E4tKsx/rFRAAAAABJRU5ErkJggg==;" parent="1" vertex="1">
          <mxGeometry x="440" y="495" width="101.14" height="110" as="geometry" />
        </mxCell>
        <mxCell id="znTp5Endj6UcAunLmGGq-8" value="S3 Object Store&lt;br&gt;Training data&lt;br&gt;Model Tests" style="outlineConnect=0;dashed=0;verticalLabelPosition=bottom;verticalAlign=top;align=center;html=1;shape=mxgraph.aws3.s3;fillColor=#E05243;gradientColor=none;" parent="1" vertex="1">
          <mxGeometry x="330" y="503.5" width="76.5" height="93" as="geometry" />
        </mxCell>
        <mxCell id="6Yetlf7pxguZ1J1Wy2Uf-13" value="" style="edgeStyle=orthogonalEdgeStyle;rounded=0;orthogonalLoop=1;jettySize=auto;html=1;" parent="1" source="6Yetlf7pxguZ1J1Wy2Uf-9" target="znTp5Endj6UcAunLmGGq-2" edge="1">
          <mxGeometry relative="1" as="geometry">
            <Array as="points">
              <mxPoint x="180" y="329" />
              <mxPoint x="180" y="264" />
            </Array>
          </mxGeometry>
        </mxCell>
        <mxCell id="6Yetlf7pxguZ1J1Wy2Uf-9" value="Direct HTTP&lt;br&gt;invoction" style="aspect=fixed;html=1;points=[];align=center;image;fontSize=12;image=img/lib/azure2/general/Browser.svg;" parent="1" vertex="1">
          <mxGeometry x="90" y="303" width="65" height="52" as="geometry" />
        </mxCell>
        <mxCell id="6Yetlf7pxguZ1J1Wy2Uf-19" value="&lt;font style=&quot;font-size: 16px&quot;&gt;&lt;b&gt;Machine Learning Model development, deployment and server-less deployment&lt;/b&gt;&lt;/font&gt;" style="rounded=0;whiteSpace=wrap;html=1;" parent="1" vertex="1">
          <mxGeometry x="260" y="40" width="350" height="60" as="geometry" />
        </mxCell>
      </root>
    </mxGraphModel>
  </diagram>
</mxfile>
